<svg xmlns="http://www.w3.org/2000/svg" xmlns:xlink="http://www.w3.org/1999/xlink" viewBox="0 0 294.81 205.87"><defs><style>.cls-1,.cls-13,.cls-2,.cls-23{fill:none;}.cls-2{stroke:#7e5dff;}.cls-13,.cls-2,.cls-21,.cls-22,.cls-26{stroke-miterlimit:10;}.cls-2,.cls-23,.cls-24,.cls-26{stroke-width:0.5px;}.cls-3{isolation:isolate;}.cls-4{fill:#e37577;}.cls-5{fill:#8ff393;}.cls-24,.cls-6{fill:#2c2c2c;}.cls-7{fill:#fafafa;}.cls-8{fill:#898989;}.cls-9{mix-blend-mode:multiply;}.cls-10{clip-path:url(#clip-path);}.cls-11{fill:url(#linear-gradient);}.cls-12{fill:url(#무제_그라디언트_22);}.cls-13{stroke:#898989;}.cls-14,.cls-21{opacity:0.2;}.cls-15{fill:#6b41ff;}.cls-16{fill:#fff;}.cls-17{clip-path:url(#clip-path-2);}.cls-18{clip-path:url(#clip-path-3);}.cls-19{fill:url(#linear-gradient-2);}.cls-20{fill:url(#무제_그라디언트_22-2);}.cls-21,.cls-23,.cls-24{stroke:#fafafa;}.cls-22,.cls-26{fill:#7e5dff;stroke:#9bfc9f;}.cls-23,.cls-24{stroke-linecap:round;stroke-linejoin:round;}.cls-25{fill:#91f8f3;mix-blend-mode:screen;}</style><clipPath id="clip-path"><rect class="cls-1" x="113.8" y="112.11" width="88.36" height="47.94" rx="3" ry="3"/></clipPath><linearGradient id="linear-gradient" x1="109.94" y1="137.96" x2="202.74" y2="137.96" gradientUnits="userSpaceOnUse"><stop offset="0.03" stop-color="#ddf8f3"/><stop offset="0.46" stop-color="#ecfcf8"/><stop offset="1" stop-color="#fbfffd"/></linearGradient><linearGradient id="무제_그라디언트_22" x1="150.65" y1="142.65" x2="208.14" y2="96.23" gradientUnits="userSpaceOnUse"><stop offset="0" stop-color="#c6b1ed" stop-opacity="0"/><stop offset="1" stop-color="#ded0f4"/></linearGradient><clipPath id="clip-path-2"><circle class="cls-2" cx="67.2" cy="122.19" r="39.02"/></clipPath><clipPath id="clip-path-3"><rect class="cls-1" x="67.2" y="112.66" width="311.52" height="169.01" rx="3" ry="3"/></clipPath><linearGradient id="linear-gradient-2" x1="53.58" y1="203.78" x2="380.75" y2="203.78" xlink:href="#linear-gradient"/><linearGradient id="무제_그라디언트_22-2" x1="197.1" y1="220.32" x2="399.79" y2="56.68" xlink:href="#무제_그라디언트_22"/></defs><title>WARP_guide graphic_0218</title><g class="cls-3"><g id="graphic"><path class="cls-4" d="M211.17,79.6c0,.53,2.16.46,3.49,1.91s1.3,4.73,1.82,4.73S217,83,218.3,81.51s3.5-1.38,3.5-1.91-2.17-.46-3.5-1.91S217,73,216.48,73s-.48,3.28-1.82,4.73S211.17,79.06,211.17,79.6Z"/><path class="cls-5" d="M21,88.43c0-.59,2.35-.5,3.8-2.08s1.4-5.14,2-5.14.53,3.57,2,5.14,3.79,1.49,3.79,2.08-2.34.49-3.79,2.07-1.41,5.14-2,5.14-.52-3.57-2-5.14S21,89,21,88.43Z"/><rect class="cls-6" x="120.07" y="57.39" width="81.66" height="157.39" rx="5" ry="5" transform="translate(24.82 296.99) rotate(-90)"/><path class="cls-7" d="M232.13,177.44H89.69a8,8,0,0,1-8-8V102.72a8,8,0,0,1,8-8H232.13a8,8,0,0,1,8,8v66.72A8,8,0,0,1,232.13,177.44ZM89.69,95.77a7,7,0,0,0-7,7v66.72a7,7,0,0,0,7,6.95H232.13a7,7,0,0,0,7-6.95V102.72a7,7,0,0,0-7-7Z"/><path class="cls-8" d="M222.12,170.21H99.7a1.78,1.78,0,0,1-1.87-1.68V103.19A1.3,1.3,0,0,1,99.2,102H222.61a1.31,1.31,0,0,1,1.38,1.24v65.34A1.78,1.78,0,0,1,222.12,170.21Z"/><g class="cls-9"><path class="cls-8" d="M222.12,170.21H99.7a1.78,1.78,0,0,1-1.87-1.68V103.19A1.3,1.3,0,0,1,99.2,102H222.61a1.31,1.31,0,0,1,1.38,1.24v65.34A1.78,1.78,0,0,1,222.12,170.21Z"/></g><g class="cls-10"><rect class="cls-11" x="109.94" y="109.14" width="92.81" height="57.63"/><rect class="cls-12" x="110.63" y="108.68" width="92.81" height="57.63"/></g><path class="cls-13" d="M222.12,170.21H99.7a1.78,1.78,0,0,1-1.87-1.68V103.19A1.3,1.3,0,0,1,99.2,102H222.61a1.31,1.31,0,0,1,1.38,1.24v65.34A1.78,1.78,0,0,1,222.12,170.21Z"/><g class="cls-9"><path class="cls-13" d="M222.12,170.21H99.7a1.78,1.78,0,0,1-1.87-1.68V103.19A1.3,1.3,0,0,1,99.2,102H222.61a1.31,1.31,0,0,1,1.38,1.24v65.34A1.78,1.78,0,0,1,222.12,170.21Z"/></g><path class="cls-14" d="M223,170.35H98.56a1.47,1.47,0,0,1-1.47-1.47V102.65a1.47,1.47,0,0,1,1.47-1.47H223a1.47,1.47,0,0,1,1.47,1.47v66.23A1.46,1.46,0,0,1,223,170.35ZM122.42,160.06h80L183.25,119l-70-7.47Z"/><circle class="cls-15" cx="214.51" cy="136.38" r="5.98"/><path class="cls-16" d="M213,135H211.7v1.84h-.37v-2.14H213Zm-.48,1.67.74-.09.05.31a5.07,5.07,0,0,1-.76.09,8.33,8.33,0,0,1-.9,0h-.28v-.3h.28Q212.11,136.67,212.48,136.64Zm1.42,1.2h-.37v-3.5h.37Zm.57-1.84h-.65v-.31h.65Z"/><path class="cls-16" d="M217.83,136.31h-3.19V136h3.19Zm-.94-1.82a1,1,0,0,1,.44.23.51.51,0,0,1,0,.72,1.07,1.07,0,0,1-.44.23,2.54,2.54,0,0,1-.66.08,2.48,2.48,0,0,1-.66-.08,1.07,1.07,0,0,1-.44-.23.51.51,0,0,1,0-.72,1,1,0,0,1,.44-.23,2.48,2.48,0,0,1,.66-.08A2.54,2.54,0,0,1,216.89,134.49Zm.55,3.3H215v-1.16h2.42Zm-1.68-3a.71.71,0,0,0-.29.13.26.26,0,0,0-.11.2.24.24,0,0,0,.11.2.71.71,0,0,0,.29.13,2.17,2.17,0,0,0,.47,0,2.07,2.07,0,0,0,.46,0,.7.7,0,0,0,.3-.13.24.24,0,0,0,.11-.2.26.26,0,0,0-.11-.2.7.7,0,0,0-.3-.13,2,2,0,0,0-.46-.05A2.12,2.12,0,0,0,215.76,134.75Zm-.37,2.74h1.69v-.57h-1.69Z"/><g class="cls-17"><rect class="cls-6" x="89.31" y="-80.26" width="287.9" height="554.86" rx="7.23" ry="7.23" transform="translate(36.09 430.42) rotate(-90)"/><path class="cls-7" d="M484.34,343H-17.82A28.21,28.21,0,0,1-46,314.77V79.57A28.21,28.21,0,0,1-17.82,51.38H484.34a28.22,28.22,0,0,1,28.19,28.19v235.2A28.22,28.22,0,0,1,484.34,343ZM-17.82,55.06A24.53,24.53,0,0,0-42.33,79.57v235.2a24.53,24.53,0,0,0,24.51,24.5H484.34a24.53,24.53,0,0,0,24.5-24.5V79.57a24.53,24.53,0,0,0-24.5-24.51Z"/><path class="cls-8" d="M449.05,317.49H17.47c-3.64,0-6.59-2.65-6.59-5.92V81.2a4.62,4.62,0,0,1,4.85-4.36H450.79a4.62,4.62,0,0,1,4.84,4.36V311.57C455.63,314.84,452.68,317.49,449.05,317.49Z"/><g class="cls-9"><path class="cls-8" d="M449.05,317.49H17.47c-3.64,0-6.59-2.65-6.59-5.92V81.2a4.62,4.62,0,0,1,4.85-4.36H450.79a4.62,4.62,0,0,1,4.84,4.36V311.57C455.63,314.84,452.68,317.49,449.05,317.49Z"/></g><g class="cls-18"><rect class="cls-19" x="53.58" y="102.2" width="327.17" height="203.15"/><rect class="cls-20" x="56.02" y="100.57" width="327.17" height="203.15"/></g><path class="cls-13" d="M449.05,317.49H17.47c-3.64,0-6.59-2.65-6.59-5.92V81.2a4.62,4.62,0,0,1,4.85-4.36H450.79a4.62,4.62,0,0,1,4.84,4.36V311.57C455.63,314.84,452.68,317.49,449.05,317.49Z"/><g class="cls-9"><path class="cls-13" d="M449.05,317.49H17.47c-3.64,0-6.59-2.65-6.59-5.92V81.2a4.62,4.62,0,0,1,4.85-4.36H450.79a4.62,4.62,0,0,1,4.84,4.36V311.57C455.63,314.84,452.68,317.49,449.05,317.49Z"/></g><path class="cls-21" d="M455.78,319.09H9.75a1.47,1.47,0,0,1-1.47-1.47V76.71a1.47,1.47,0,0,1,1.47-1.47h446a1.47,1.47,0,0,1,1.47,1.47V317.62A1.47,1.47,0,0,1,455.78,319.09ZM97.57,282.8h282L312,137.88,65.14,111.54Z"/><circle class="cls-22" cx="67.2" cy="112.66" r="9.53"/></g><circle class="cls-2" cx="67.2" cy="122.19" r="39.02"/><line class="cls-23" x1="246.72" y1="125.01" x2="249.64" y2="118.35"/><line class="cls-23" x1="251.71" y1="130.07" x2="269.51" y2="123.16"/><line class="cls-23" x1="23.17" y1="113.35" x2="16.76" y2="109.91"/><line class="cls-23" x1="22.37" y1="120.41" x2="4.1" y2="125.95"/><line class="cls-23" x1="252.75" y1="138.42" x2="291.28" y2="146.86"/><path class="cls-24" d="M252.48,110.48a1.32,1.32,0,0,1,.84,1.65,1.31,1.31,0,1,1-.84-1.65Z"/><path class="cls-25" d="M59.24,67.59c0-.76-3.08-.65-5-2.72s-1.84-6.75-2.59-6.75S51,62.8,49.07,64.87s-5,2-5,2.72,3.08.65,5,2.72,1.85,6.74,2.59,6.74.69-4.67,2.59-6.74S59.24,68.35,59.24,67.59Z"/><polygon class="cls-23" points="113.39 112.09 183.42 119.56 202.59 160.67 122.58 160.67 113.39 112.09"/><circle class="cls-26" cx="113.8" cy="112.11" r="2.7"/><circle class="cls-26" cx="183.18" cy="119.49" r="2.7"/><circle class="cls-26" cx="202.17" cy="160.05" r="2.7"/><circle class="cls-26" cx="122.92" cy="160.05" r="2.7"/></g></g></svg>