<svg xmlns="http://www.w3.org/2000/svg" xmlns:xlink="http://www.w3.org/1999/xlink" viewBox="0 0 294.81 205.87"><defs><style>.cls-1,.cls-15{fill:none;}.cls-1,.cls-4,.cls-5{stroke-linecap:round;stroke-linejoin:round;}.cls-1{stroke:url(#무제_그라디언트_17);}.cls-2{isolation:isolate;}.cls-3{fill:#8ff393;}.cls-10,.cls-13,.cls-4,.cls-5{fill:#2c2c2c;}.cls-4,.cls-5{stroke:#fafafa;}.cls-4{stroke-width:0.5px;}.cls-13,.cls-5{stroke-width:0.7px;}.cls-6{fill:#898989;}.cls-7{mix-blend-mode:multiply;}.cls-8{fill:#fafafa;opacity:0.3;}.cls-9{fill:#6b41ff;}.cls-11{fill:#fff;}.cls-12{clip-path:url(#clip-path);}.cls-13,.cls-15{stroke:#fff;stroke-miterlimit:10;}.cls-14{fill:#e37577;}.cls-15{stroke-width:0.25px;}</style><linearGradient id="무제_그라디언트_17" x1="25.75" y1="98.32" x2="154.89" y2="98.32" gradientUnits="userSpaceOnUse"><stop offset="0" stop-color="#fff"/><stop offset="0.37" stop-color="#fff" stop-opacity="0.99"/><stop offset="0.51" stop-color="#fff" stop-opacity="0.97"/><stop offset="0.6" stop-color="#fff" stop-opacity="0.92"/><stop offset="0.68" stop-color="#fff" stop-opacity="0.85"/><stop offset="0.75" stop-color="#fff" stop-opacity="0.77"/><stop offset="0.8" stop-color="#fff" stop-opacity="0.66"/><stop offset="0.86" stop-color="#fff" stop-opacity="0.53"/><stop offset="0.91" stop-color="#fff" stop-opacity="0.39"/><stop offset="0.95" stop-color="#fff" stop-opacity="0.22"/><stop offset="0.99" stop-color="#fff" stop-opacity="0.04"/><stop offset="1" stop-color="#fff" stop-opacity="0"/></linearGradient><clipPath id="clip-path"><circle class="cls-1" cx="90.32" cy="98.32" r="64.07"/></clipPath></defs><title>WARP_guide graphic_0218</title><g class="cls-2"><g id="graphic"><path class="cls-3" d="M190.21,80.37c0-.58-2.35-.5-3.8-2.07s-1.41-5.14-2-5.14-.53,3.56-2,5.14-3.8,1.49-3.8,2.07,2.35.5,3.8,2.07,1.41,5.14,2,5.14.52-3.56,2-5.14S190.21,81,190.21,80.37Z"/><line class="cls-4" x1="155.04" y1="49.59" x2="160.53" y2="27.68"/><line class="cls-4" x1="168.19" y1="55.49" x2="219.1" y2="25.09"/><path class="cls-4" d="M183.86,14a4.06,4.06,0,1,1-4.62,3.4A4,4,0,0,1,183.86,14Z"/><rect class="cls-5" x="137.79" y="109.57" width="54.63" height="105.29" rx="5" ry="5" transform="translate(2.88 327.32) rotate(-90)"/><path class="cls-6" d="M206.05,185.05h-81.9a1.19,1.19,0,0,1-1.25-1.12V140.21a.88.88,0,0,1,.92-.83h82.56a.88.88,0,0,1,.92.83v43.72A1.19,1.19,0,0,1,206.05,185.05Z"/><g class="cls-7"><path class="cls-6" d="M206.05,185.05h-81.9a1.19,1.19,0,0,1-1.25-1.12V140.21a.88.88,0,0,1,.92-.83h82.56a.88.88,0,0,1,.92.83v43.72A1.19,1.19,0,0,1,206.05,185.05Z"/></g><path class="cls-8" d="M204.77,143.9a2,2,0,1,1-2-2A2,2,0,0,1,204.77,143.9Z"/><path class="cls-8" d="M198.88,143.9a2,2,0,1,1-2-2A2,2,0,0,1,198.88,143.9Z"/><rect class="cls-9" x="136.16" y="175.64" width="28.15" height="6.81" rx="2.96" ry="2.96"/><rect class="cls-10" x="165.9" y="175.64" width="28.15" height="6.81" rx="2.96" ry="2.96"/><path class="cls-11" d="M165.23,163.92h1.41L163.22,156h-.07l-3.43,7.92H161l.75-1.82h2.73Zm-3.08-2.86,1-2.46,1,2.46Z"/><path class="cls-11" d="M173.56,163.92l-2-2.94a2.63,2.63,0,0,0,.74-.56,2.32,2.32,0,0,0,.45-.83,3.19,3.19,0,0,0,.14-.91,2.72,2.72,0,0,0-.2-1.07,2.21,2.21,0,0,0-.58-.77,2.76,2.76,0,0,0-.9-.48,3.89,3.89,0,0,0-1.17-.17h-2.19v7.73h1.25v-2.68h1.23l1.74,2.69Zm-4.42-6.54h1.14a1.45,1.45,0,0,1,.67.13,1.13,1.13,0,0,1,.42.35,1.21,1.21,0,0,1,.22.44,1.67,1.67,0,0,1,.07.42,1.75,1.75,0,0,1-.07.43,1.49,1.49,0,0,1-.23.43,1.27,1.27,0,0,1-.44.33,1.68,1.68,0,0,1-.68.13h-1.1Z"/><path class="cls-11" d="M179.47,157.34a2.21,2.21,0,0,0-1-.85,3.48,3.48,0,0,0-1.51-.3h-2.19v7.73h1.24v-2.67h1.13a3,3,0,0,0,1.22-.23,2.26,2.26,0,0,0,.81-.6,2.52,2.52,0,0,0,.45-.82,3,3,0,0,0,.14-.92A2.61,2.61,0,0,0,179.47,157.34Zm-1,1.77a1.3,1.3,0,0,1-.22.44,1.16,1.16,0,0,1-.43.35,1.52,1.52,0,0,1-.68.14h-1.12v-2.66h1.15a1.57,1.57,0,0,1,.69.13,1.17,1.17,0,0,1,.41.34,1.56,1.56,0,0,1,.21.43,1.64,1.64,0,0,1,.06.42A1.31,1.31,0,0,1,178.5,159.11Z"/><path class="cls-11" d="M160.43,156.19h-1.18l-.31.81-1.61,4.1-1.91-4.91h-1.17l.75,2.09-1.46,2.91-1.94-5h-1.15v0l-.06,0,2.91,7.72h.2l2-4.24.2.45,1.43,3.79h.19Zm-3.09,4.92Z"/><g class="cls-12"><rect class="cls-13" x="103" y="1.04" width="140.89" height="271.53" rx="10" ry="10" transform="translate(36.64 310.25) rotate(-90)"/><path class="cls-6" d="M279.05,195.69H67.85a3.08,3.08,0,0,1-3.23-2.9V80.06A2.26,2.26,0,0,1,67,77.92H279.9a2.26,2.26,0,0,1,2.37,2.14V192.79A3.07,3.07,0,0,1,279.05,195.69Z"/><g class="cls-7"><path class="cls-6" d="M279.05,195.69H67.85a3.08,3.08,0,0,1-3.23-2.9V80.06A2.26,2.26,0,0,1,67,77.92H279.9a2.26,2.26,0,0,1,2.37,2.14V192.79A3.07,3.07,0,0,1,279.05,195.69Z"/></g><path class="cls-10" d="M275.73,89.56a5.24,5.24,0,1,1-5.24-5.24A5.24,5.24,0,0,1,275.73,89.56Z"/><path class="cls-10" d="M260.55,89.56a5.24,5.24,0,1,1-5.24-5.24A5.24,5.24,0,0,1,260.55,89.56Z"/><rect class="cls-9" x="98.8" y="171.43" width="72.58" height="17.57" rx="6.21" ry="6.21"/><rect class="cls-10" x="175.5" y="171.43" width="72.58" height="17.57" rx="6.21" ry="6.21"/><path class="cls-11" d="M173.78,141.21h3.64l-8.82-20.43h-.19l-8.85,20.43h3.27l1.94-4.71h7Zm-8-7.4,2.54-6.33,2.49,6.33Z"/><path class="cls-11" d="M195.25,141.21l-5.06-7.6a6.41,6.41,0,0,0,1.92-1.44,5.81,5.81,0,0,0,1.16-2.14,8,8,0,0,0,.36-2.36,6.62,6.62,0,0,0-.52-2.73,5.46,5.46,0,0,0-1.49-2,7.12,7.12,0,0,0-2.33-1.25,9.84,9.84,0,0,0-3-.44h-5.65v20h3.21v-6.93H187l4.49,6.94Zm-11.4-16.88h3a3.79,3.79,0,0,1,1.72.35,2.83,2.83,0,0,1,1.09.89,3.61,3.61,0,0,1,.56,1.13,4.09,4.09,0,0,1,.16,1.08,3.78,3.78,0,0,1-.18,1.11,3.11,3.11,0,0,1-.58,1.11,3,3,0,0,1-1.13.85,4.14,4.14,0,0,1-1.75.33h-2.85Z"/><path class="cls-11" d="M210.49,124.24A5.57,5.57,0,0,0,208,122a9,9,0,0,0-3.89-.77h-5.64v20h3.2V134.3h2.91a7.57,7.57,0,0,0,3.13-.58A5.75,5.75,0,0,0,211,130a7.81,7.81,0,0,0,.37-2.37A6.5,6.5,0,0,0,210.49,124.24ZM208,128.8a3.47,3.47,0,0,1-.58,1.13,3.07,3.07,0,0,1-1.09.9,4,4,0,0,1-1.77.35h-2.88v-6.85h3a4,4,0,0,1,1.77.35,2.76,2.76,0,0,1,1.07.87,4,4,0,0,1,.53,1.11,3.89,3.89,0,0,1,.17,1.07A3.79,3.79,0,0,1,208,128.8Z"/><path class="cls-11" d="M161.39,121.27h-3l-.81,2.08-4.14,10.57-4.94-12.66h-3l1.92,5.39-3.76,7.5-5-12.89h-3v0l-.14,0,7.51,19.91h.49l5.25-10.94.5,1.16,3.69,9.78h.5Zm-8,12.68h0Z"/></g><circle class="cls-1" cx="90.32" cy="98.32" r="64.07"/><circle class="cls-14" cx="85.98" cy="94.99" r="2.13"/><path class="cls-11" d="M93.85,92a1.53,1.53,0,0,1,.57.56,1.61,1.61,0,0,1,0,1.59,1.44,1.44,0,0,1-.57.55,1.62,1.62,0,0,1-.81.2,1.58,1.58,0,0,1-.82-.2,1.4,1.4,0,0,1-.58-.55,1.61,1.61,0,0,1,0-1.59,1.49,1.49,0,0,1,.58-.56,1.69,1.69,0,0,1,.82-.2A1.73,1.73,0,0,1,93.85,92Zm-1.32.51a.82.82,0,0,0-.35.34,1,1,0,0,0-.13.51,1,1,0,0,0,.48.85,1.07,1.07,0,0,0,.51.12,1,1,0,0,0,.49-.12,1,1,0,0,0,.48-.85,1,1,0,0,0-.13-.51.82.82,0,0,0-.35-.34.9.9,0,0,0-.49-.13A1,1,0,0,0,92.53,92.54Zm.59,4.62h-.65V95.5h.65Zm3.49.29H92.47v-.53h4.14ZM96,92.91H94.18v-.53H96Zm0,1.47H94.18v-.53H96ZM96.45,96H95.8V91.46h.65Z"/><path class="cls-11" d="M100.24,93.1a2.7,2.7,0,0,1-1,1,5.12,5.12,0,0,1-1.55.62l-.23-.53a4.86,4.86,0,0,0,1.31-.48,2.27,2.27,0,0,0,.8-.72,1.63,1.63,0,0,0,.27-.92v-.32h.71A2.64,2.64,0,0,1,100.24,93.1Zm-.09-.83H97.81v-.53h2.34Zm2.35,4.11H99.15v.92h-.64V95.89h3.34v-.54H98.5v-.52h4Zm.19,1.14H98.51V97h4.18ZM101.92,94H100.3v-.5h1.62Zm0-1.17h-1.6V92.3H102Zm.55,1.76h-.65V91.45h.65Z"/><path class="cls-11" d="M107.71,92.07a1.54,1.54,0,0,1,.59.54,1.5,1.5,0,0,1-.59,2.12,1.75,1.75,0,0,1-.83.19,1.78,1.78,0,0,1-.83-.19,1.57,1.57,0,0,1-.59-.55,1.49,1.49,0,0,1,.59-2.11,1.78,1.78,0,0,1,.83-.2A1.76,1.76,0,0,1,107.71,92.07Zm-1.34.49a.88.88,0,0,0-.48.84.89.89,0,0,0,.12.49.9.9,0,0,0,.36.34,1.1,1.1,0,0,0,.51.12,1.07,1.07,0,0,0,.51-.12.9.9,0,0,0,.36-.34,1,1,0,0,0,0-1,.9.9,0,0,0-.36-.34,1.07,1.07,0,0,0-.51-.12A1.1,1.1,0,0,0,106.37,92.56Zm.36,4.58h-.64V95.48h.64Zm3.5.31h-4.14v-.53h4.14ZM110,96h-.65v-4.5H110Zm.89-2.13h-1.09v-.54h1.09Z"/><path class="cls-11" d="M115.06,94.4a17.35,17.35,0,0,0,1.84-.15l0,.46a17.56,17.56,0,0,1-1.84.2c-.63,0-1.32,0-2.07,0l-.07-.51C113.71,94.44,114.41,94.43,115.06,94.4Zm1.41-2.09h-2.33v1.14h-.65V91.78h3Zm0,1.44h-3v-.53h3ZM118,97.5h-4.08v-2H118ZM114.57,97h2.81V96h-2.81Zm.73-2.35h-.66V93.56h.66Zm2.71.56h-.65V91.46H118Z"/><rect class="cls-15" x="75.94" y="87.06" width="50.79" height="15.83" rx="7.92" ry="7.92"/></g></g></svg>