<svg xmlns="http://www.w3.org/2000/svg" xmlns:xlink="http://www.w3.org/1999/xlink" viewBox="0 0 294.81 205.87"><defs><style>.cls-1,.cls-10,.cls-3,.cls-6,.cls-7{fill:none;}.cls-2{isolation:isolate;}.cls-12,.cls-13,.cls-15,.cls-3,.cls-9{stroke:#fafafa;}.cls-12,.cls-13,.cls-3,.cls-6,.cls-7,.cls-9{stroke-linecap:round;stroke-linejoin:round;}.cls-4{fill:#6b41ff;}.cls-5{fill:url(#무제_그라디언트_22);}.cls-10,.cls-12,.cls-6,.cls-7{stroke-width:0.7px;}.cls-6,.cls-7{opacity:0.3;}.cls-6{stroke:url(#무제_그라디언트_15);}.cls-7{stroke:url(#무제_그라디언트_15-2);}.cls-8{fill:#8ff393;mix-blend-mode:screen;}.cls-12,.cls-13,.cls-9{fill:#2c2c2c;}.cls-9{stroke-width:0.5px;}.cls-10{stroke:#6b41ff;}.cls-10,.cls-15{stroke-miterlimit:10;}.cls-11{fill:url(#linear-gradient);}.cls-13,.cls-15{stroke-width:0.3px;}.cls-14{fill:#91f8f3;}.cls-15{opacity:0.2;fill:url(#무제_그라디언트_22-2);}.cls-16{clip-path:url(#clip-path);}.cls-17{fill:url(#linear-gradient-2);}.cls-18{fill:url(#무제_그라디언트_22-3);}.cls-19{fill:url(#linear-gradient-3);}.cls-20{fill:url(#무제_그라디언트_22-4);}.cls-21{fill:url(#linear-gradient-4);}.cls-22{fill:#d489ac;}</style><linearGradient id="무제_그라디언트_22" x1="202.79" y1="98.82" x2="202.79" y2="31.5" gradientUnits="userSpaceOnUse"><stop offset="0" stop-color="#c6b1ed" stop-opacity="0"/><stop offset="1" stop-color="#ded0f4"/></linearGradient><linearGradient id="무제_그라디언트_15" x1="202.14" y1="55.48" x2="259.9" y2="55.48" gradientUnits="userSpaceOnUse"><stop offset="0" stop-color="#fff" stop-opacity="0"/><stop offset="0.01" stop-color="#fff" stop-opacity="0.04"/><stop offset="0.05" stop-color="#fff" stop-opacity="0.22"/><stop offset="0.09" stop-color="#fff" stop-opacity="0.39"/><stop offset="0.14" stop-color="#fff" stop-opacity="0.53"/><stop offset="0.2" stop-color="#fff" stop-opacity="0.66"/><stop offset="0.25" stop-color="#fff" stop-opacity="0.77"/><stop offset="0.32" stop-color="#fff" stop-opacity="0.85"/><stop offset="0.4" stop-color="#fff" stop-opacity="0.92"/><stop offset="0.49" stop-color="#fff" stop-opacity="0.97"/><stop offset="0.63" stop-color="#fff" stop-opacity="0.99"/><stop offset="1" stop-color="#fff"/></linearGradient><linearGradient id="무제_그라디언트_15-2" x1="146.03" y1="55.73" x2="197.14" y2="55.73" xlink:href="#무제_그라디언트_15"/><linearGradient id="linear-gradient" x1="22.41" y1="184.89" x2="150.29" y2="139.26" gradientUnits="userSpaceOnUse"><stop offset="0.03" stop-color="#ddf8f3"/><stop offset="0.46" stop-color="#ecfcf8"/><stop offset="1" stop-color="#fbfffd"/></linearGradient><linearGradient id="무제_그라디언트_22-2" x1="39.11" y1="159.86" x2="118.07" y2="159.86" xlink:href="#무제_그라디언트_22"/><clipPath id="clip-path"><rect class="cls-1" x="43.91" y="113.83" width="69.6" height="37.76" rx="3" ry="3"/></clipPath><linearGradient id="linear-gradient-2" x1="40.86" y1="134.19" x2="113.96" y2="134.19" xlink:href="#linear-gradient"/><linearGradient id="무제_그라디언트_22-3" x1="72.93" y1="137.88" x2="118.21" y2="101.32" xlink:href="#무제_그라디언트_22"/><linearGradient id="linear-gradient-3" x1="200.34" y1="43.75" x2="285.15" y2="-46.85" xlink:href="#linear-gradient"/><linearGradient id="무제_그라디언트_22-4" x1="191.98" y1="51.8" x2="269.86" y2="-25.15" xlink:href="#무제_그라디언트_22"/><linearGradient id="linear-gradient-4" x1="182.18" y1="106.52" x2="237.77" y2="106.52" xlink:href="#linear-gradient"/></defs><title>WARP_guide graphic_0218</title><g class="cls-2"><g id="graphic"><polyline class="cls-3" points="237.54 198.96 209.91 129.14 182.27 198.96"/><line class="cls-3" x1="209.91" y1="129.14" x2="209.91" y2="184.41"/><path class="cls-4" d="M231.11,123.61a3,3,0,0,0-1.86-.65h-39a3.38,3.38,0,0,0-2.17.78l-4.55,3.82a1,1,0,0,0,.61,1.68h51.82a.72.72,0,0,0,.46-1.27Z"/><polygon class="cls-5" points="146.59 71.61 195.09 100.17 203.51 100.17 259 71.95 146.59 71.61"/><polyline class="cls-6" points="259.39 10.33 202.49 100.63 259.55 71.35"/><polyline class="cls-7" points="146.9 10.48 196.79 100.98 146.38 71.14"/><path class="cls-8" d="M242.29,158.2c0,.41,1.68.35,2.73,1.49s1,3.69,1.41,3.69.38-2.56,1.42-3.69,2.73-1.08,2.73-1.49-1.69-.36-2.73-1.49-1-3.7-1.42-3.7-.37,2.57-1.41,3.7S242.29,157.78,242.29,158.2Z"/><line class="cls-9" x1="250.51" y1="133.78" x2="259.15" y2="134.61"/><line class="cls-9" x1="249.02" y1="139.11" x2="263.49" y2="156.72"/><circle class="cls-9" cx="235.32" cy="146.01" r="1.56"/><path class="cls-10" d="M121.46,163c.2-6.67,3.25-17.31,12.47-23a16.38,16.38,0,0,1,8-1.94c1.79.15,5.28,1.4,6.13,3.55s-.46,9.45-2.28,8c-1.64-1.94,0-10.39,1.23-12.31,3.23-5.09,6.81-8.91,15.57-7.49,2.13-9.35,10.3-15.84,19-13.84"/><path class="cls-11" d="M117.58,157.94a5.36,5.36,0,0,0-3.39-1.2H42.79A5.41,5.41,0,0,0,39.33,158l-10.08,8.46a1,1,0,0,0,.62,1.73l98.58,0a.56.56,0,0,0,.35-1Z"/><rect class="cls-12" x="40.39" y="108.5" width="76.62" height="48.41" rx="5" ry="5"/><path class="cls-12" d="M117.58,157.94a5.36,5.36,0,0,0-3.39-1.2H42.79A5.41,5.41,0,0,0,39.33,158l-10.08,8.46a1,1,0,0,0,.62,1.73l98.58,0a.56.56,0,0,0,.35-1Z"/><rect class="cls-13" x="43.91" y="113.83" width="69.6" height="37.76" rx="3" ry="3"/><path class="cls-14" d="M86.09,163.28a1.24,1.24,0,0,0-.67-.18H71.3a1.29,1.29,0,0,0-.68.19l-2,1.3c-.13.09-.05.26.13.26H88.24c.1,0,.15-.1.07-.16Z"/><path class="cls-15" d="M115.16,158.7a1.4,1.4,0,0,0-.86-.3H42.65a1.32,1.32,0,0,0-.88.32l-2.57,2.15a.25.25,0,0,0,.16.44h78.57a.14.14,0,0,0,.09-.25Z"/><g class="cls-16"><rect class="cls-17" x="40.86" y="111.49" width="73.1" height="45.39"/><rect class="cls-18" x="41.41" y="111.13" width="73.1" height="45.39"/></g><rect class="cls-19" x="145.4" y="9.66" width="115.2" height="62.5" rx="3" ry="3"/><rect class="cls-20" x="145.4" y="9.66" width="115.2" height="62.5" rx="3" ry="3"/><circle class="cls-4" cx="199.37" cy="107.38" r="7.84" transform="translate(49.05 276.74) rotate(-76.72)"/><circle class="cls-4" cx="199.37" cy="107.38" r="6.01" transform="translate(49.05 276.74) rotate(-76.72)"/><path class="cls-21" d="M237.77,109.4,231.13,104a2.83,2.83,0,0,0-1.79-.63H190.45a2.85,2.85,0,0,0-1.83.67l-6.4,5.36a.11.11,0,0,0,.07.19h55.48Z"/><path class="cls-22" d="M182.37,110.21H237.6a.33.33,0,0,1,.33.33v13.51a2.47,2.47,0,0,1-2.47,2.47h-51a2.47,2.47,0,0,1-2.47-2.47V110.54A.33.33,0,0,1,182.37,110.21Z"/><path class="cls-12" d="M182,110.18v14.21a2,2,0,0,0,2,2H236a2,2,0,0,0,2-2V110.18a.78.78,0,0,0-.28-.6l-6.49-5.52a3,3,0,0,0-1.85-.65H190.48a2.89,2.89,0,0,0-1.88.69l-6.3,5.48A.8.8,0,0,0,182,110.18Z"/><line class="cls-13" x1="183.58" y1="109.95" x2="236.2" y2="109.95"/><path class="cls-14" d="M188.76,114a1.44,1.44,0,1,1-1.44-1.44A1.43,1.43,0,0,1,188.76,114Z"/><path class="cls-4" d="M201,45.26h1.68l-4.05-9.36h-.09l-4,9.36H196l.89-2.16h3.24Zm-3.64-3.39,1.16-2.9,1.14,2.9Z"/><path class="cls-4" d="M210.85,45.26l-2.32-3.48a3.12,3.12,0,0,0,.88-.66,2.61,2.61,0,0,0,.53-1,3.69,3.69,0,0,0,.17-1.08,3.08,3.08,0,0,0-.24-1.26,2.48,2.48,0,0,0-.69-.91,3,3,0,0,0-1.06-.57,4.65,4.65,0,0,0-1.38-.2h-2.59v9.14h1.47V42.08h1.46l2.06,3.18Zm-5.23-7.74H207a1.82,1.82,0,0,1,.79.16,1.36,1.36,0,0,1,.5.41,2,2,0,0,1,.26.52,1.88,1.88,0,0,1,.07.5,1.92,1.92,0,0,1-.08.51,1.79,1.79,0,0,1-.27.51,1.49,1.49,0,0,1-.52.38,1.73,1.73,0,0,1-.8.16h-1.31Z"/><path class="cls-4" d="M217.84,37.48a2.5,2.5,0,0,0-1.14-1,4.18,4.18,0,0,0-1.78-.35h-2.59v9.14h1.47V42.1h1.33a3.49,3.49,0,0,0,1.44-.27,2.62,2.62,0,0,0,1-.71,2.93,2.93,0,0,0,.54-1,3.69,3.69,0,0,0,.17-1.08A3.06,3.06,0,0,0,217.84,37.48Zm-1.14,2.09a1.72,1.72,0,0,1-.27.52,1.36,1.36,0,0,1-.5.41,1.74,1.74,0,0,1-.81.17H213.8V37.52h1.36a2,2,0,0,1,.81.16,1.41,1.41,0,0,1,.49.4,2,2,0,0,1,.24.51,1.85,1.85,0,0,1,.08.49A1.91,1.91,0,0,1,216.7,39.57Z"/><path class="cls-4" d="M195.32,36.12h-1.38l-.37,1-1.9,4.85-2.27-5.81H188l.89,2.47L187.18,42l-2.29-5.91h-1.36v0l-.06,0,3.44,9.13h.23l2.41-5,.23.54,1.69,4.48h.23Zm-3.65,5.82Z"/><path class="cls-4" d="M78.81,136H80l-2.81-6.53H77.1L74.29,136h1l.62-1.5h2.24Zm-2.53-2.36.81-2,.79,2Z"/><path class="cls-4" d="M85.64,136,84,133.55a2.21,2.21,0,0,0,.61-.47,2,2,0,0,0,.37-.68,2.78,2.78,0,0,0,.11-.75,2.19,2.19,0,0,0-.17-.88,1.63,1.63,0,0,0-.47-.63,2.19,2.19,0,0,0-.74-.4,3.22,3.22,0,0,0-1-.14H81V136h1v-2.21h1L84.46,136ZM82,130.58H83a1.28,1.28,0,0,1,.55.11,1,1,0,0,1,.34.28,1,1,0,0,1,.18.37,1.08,1.08,0,0,1,0,.34,1.63,1.63,0,0,1,0,.36,1.09,1.09,0,0,1-.19.35,1,1,0,0,1-.36.27,1.3,1.3,0,0,1-.56.11H82Z"/><path class="cls-4" d="M90.5,130.55a1.88,1.88,0,0,0-.79-.71,3,3,0,0,0-1.24-.24h-1.8V136h1v-2.2h.93a2.51,2.51,0,0,0,1-.19,2,2,0,0,0,.66-.49,1.92,1.92,0,0,0,.37-.69,2.45,2.45,0,0,0,.12-.75A2.14,2.14,0,0,0,90.5,130.55ZM89.7,132a1,1,0,0,1-.18.36.91.91,0,0,1-.35.28,1.16,1.16,0,0,1-.56.12h-.92v-2.19h.94a1.35,1.35,0,0,1,.57.11.87.87,0,0,1,.34.28,1.26,1.26,0,0,1,.17.35,1.55,1.55,0,0,1,.05.35A1.22,1.22,0,0,1,89.7,132Z"/><path class="cls-4" d="M74.87,129.6h-1l-.26.67-1.32,3.38-1.57-4.05h-1l.62,1.72-1.2,2.4-1.59-4.12h-1L69,136h.16l1.67-3.49.16.37L72.19,136h.16Zm-2.54,4.05h0Z"/></g></g></svg>