<svg xmlns="http://www.w3.org/2000/svg" xmlns:xlink="http://www.w3.org/1999/xlink" viewBox="0 0 294.81 205.87"><defs><style>.cls-1,.cls-6{fill:#2c2c2c;}.cls-1,.cls-2,.cls-6{stroke:#fafafa;}.cls-1,.cls-14,.cls-15,.cls-16,.cls-17{stroke-linecap:round;stroke-linejoin:round;}.cls-1{stroke-width:0.7px;}.cls-14,.cls-15,.cls-16,.cls-17,.cls-2{fill:none;}.cls-2,.cls-6{stroke-miterlimit:10;stroke-width:0.5px;}.cls-3{fill:url(#linear-gradient);}.cls-4{fill:#fff;}.cls-5{fill:url(#linear-gradient-2);}.cls-7{fill:#6b41ff;}.cls-8{fill:url(#linear-gradient-3);}.cls-9{fill:url(#linear-gradient-4);}.cls-10{fill:#e37577;}.cls-11{fill:#8ff393;}.cls-12{fill:url(#무제_그라디언트_22);}.cls-13{fill:#91f8f3;}.cls-14,.cls-15,.cls-16{stroke-width:1.02px;}.cls-14{stroke:url(#무제_그라디언트_58);}.cls-15,.cls-16{opacity:0.4;}.cls-15{stroke:url(#무제_그라디언트_58-2);}.cls-16{stroke:url(#무제_그라디언트_58-3);}.cls-17{stroke-width:0.99px;stroke:url(#무제_그라디언트_59);}.cls-18{fill:url(#무제_그라디언트_22-2);}</style><linearGradient id="linear-gradient" x1="100.86" y1="116.94" x2="122.31" y2="116.94" gradientUnits="userSpaceOnUse"><stop offset="0" stop-color="#fff" stop-opacity="0"/><stop offset="0.53" stop-opacity="0"/><stop offset="0.93" stop-opacity="0.14"/><stop offset="1" stop-opacity="0.3"/></linearGradient><linearGradient id="linear-gradient-2" x1="100.86" y1="116.94" x2="122.31" y2="116.94" gradientUnits="userSpaceOnUse"><stop offset="0" stop-color="#e6fdfd"/><stop offset="0.02" stop-color="#e5fdfb" stop-opacity="0.86"/><stop offset="0.05" stop-color="#e3fef7" stop-opacity="0.63"/><stop offset="0.08" stop-color="#e2fef4" stop-opacity="0.44"/><stop offset="0.11" stop-color="#e1fef2" stop-opacity="0.28"/><stop offset="0.14" stop-color="#e0fff0" stop-opacity="0.16"/><stop offset="0.17" stop-color="#dfffee" stop-opacity="0.07"/><stop offset="0.19" stop-color="#dfffed" stop-opacity="0.02"/><stop offset="0.22" stop-color="#dfffed" stop-opacity="0"/></linearGradient><linearGradient id="linear-gradient-3" x1="100.86" y1="116.94" x2="122.31" y2="116.94" gradientUnits="userSpaceOnUse"><stop offset="0.03" stop-color="#ddf8f3"/><stop offset="0.46" stop-color="#ecfcf8"/><stop offset="1" stop-color="#fbfffd"/></linearGradient><linearGradient id="linear-gradient-4" x1="100.86" y1="116.94" x2="122.31" y2="116.94" gradientUnits="userSpaceOnUse"><stop offset="0" stop-color="#46fafe"/><stop offset="0.01" stop-color="#46fafe" stop-opacity="0"/></linearGradient><linearGradient id="무제_그라디언트_22" x1="-1658.2" y1="-10053.74" x2="-1628.73" y2="-10064.26" gradientTransform="translate(-1533.78 -9941.38) rotate(180)" gradientUnits="userSpaceOnUse"><stop offset="0" stop-color="#c6b1ed" stop-opacity="0"/><stop offset="1" stop-color="#ded0f4"/></linearGradient><linearGradient id="무제_그라디언트_58" x1="105.33" y1="87.89" x2="146.68" y2="87.89" gradientUnits="userSpaceOnUse"><stop offset="0" stop-color="#ded0f4"/><stop offset="1" stop-color="#c6b1ed" stop-opacity="0"/></linearGradient><linearGradient id="무제_그라디언트_58-2" x1="1078.19" y1="-161.08" x2="1098.97" y2="-161.08" gradientTransform="matrix(0.98, 0.19, -0.19, 0.98, -955.44, 50.34)" xlink:href="#무제_그라디언트_58"/><linearGradient id="무제_그라디언트_58-3" x1="5982.36" y1="-842.69" x2="6410.44" y2="-842.69" gradientTransform="matrix(0.41, 0.45, -0.5, 0.45, -2907.9, -2392.11)" xlink:href="#무제_그라디언트_58"/><linearGradient id="무제_그라디언트_59" x1="-1642.82" y1="143.43" x2="-1599.07" y2="143.43" gradientTransform="matrix(-1, 0, 0, 1, -1494.21, 0)" xlink:href="#무제_그라디언트_22"/><linearGradient id="무제_그라디언트_22-2" x1="123.05" y1="113.97" x2="235.82" y2="113.97" gradientTransform="matrix(1, 0, 0, 1, 0, 0)" xlink:href="#무제_그라디언트_22"/></defs><title>WARP_guide graphic_0218</title><g id="graphic"><path class="cls-1" d="M46.55,97.8H126a6.39,6.39,0,0,1,6.39,6.39v27.19a6.39,6.39,0,0,1-6.39,6.39H46.55a0,0,0,0,1,0,0v-40A0,0,0,0,1,46.55,97.8Z"/><path class="cls-1" d="M46.58,137.77l-30.57-5a2.37,2.37,0,0,1-2-2.3V108.3a2.05,2.05,0,0,1,1.55-2L46.58,97.8Z"/><path class="cls-2" d="M98.27,77.22a2.71,2.71,0,1,1-2.71-2.71A2.7,2.7,0,0,1,98.27,77.22Z"/><line class="cls-2" x1="99.37" y1="160.23" x2="105.04" y2="180.04"/><line class="cls-2" x1="116.33" y1="158.36" x2="143.95" y2="189.49"/><ellipse class="cls-3" cx="111.59" cy="116.94" rx="10.72" ry="11.84"/><ellipse class="cls-4" cx="111.59" cy="116.94" rx="10.72" ry="11.84"/><ellipse class="cls-5" cx="111.59" cy="116.94" rx="10.72" ry="11.84"/><ellipse class="cls-6" cx="104.21" cy="116.85" rx="11.8" ry="12.56"/><ellipse class="cls-7" cx="111.39" cy="116.85" rx="14.9" ry="15.86"/><ellipse class="cls-8" cx="111.59" cy="116.94" rx="10.72" ry="11.84"/><ellipse class="cls-9" cx="111.59" cy="116.94" rx="10.72" ry="11.84"/><path class="cls-2" d="M46.14,151.69a2.14,2.14,0,1,0,2.41-1.82A2.14,2.14,0,0,0,46.14,151.69Z"/><path class="cls-10" d="M125.12,52.27c0,.47,1.91.4,3.08,1.68s1.14,4.17,1.6,4.17.43-2.89,1.61-4.17,3.08-1.21,3.08-1.68-1.91-.4-3.08-1.68-1.14-4.17-1.61-4.17-.42,2.89-1.6,4.17S125.12,51.8,125.12,52.27Z"/><path class="cls-11" d="M150.64,41c0,.31,1.25.26,2,1.11s.75,2.74,1.05,2.74.28-1.9,1.06-2.74,2-.8,2-1.11-1.26-.27-2-1.11-.75-2.75-1.06-2.75-.28,1.91-1.05,2.75S150.64,40.68,150.64,41Z"/><path class="cls-7" d="M60.9,164.18c0,.31,1.25.27,2,1.11s.75,2.75,1,2.75.28-1.91,1.06-2.75,2-.8,2-1.11-1.26-.27-2-1.11-.75-2.75-1.06-2.75-.28,1.91-1,2.75S60.9,163.87,60.9,164.18Z"/><ellipse class="cls-12" cx="111.59" cy="116.94" rx="10.72" ry="11.84"/><circle class="cls-13" cx="226.94" cy="113.97" r="56.39"/><line class="cls-14" x1="105.84" y1="107.32" x2="146.17" y2="68.46"/><line class="cls-15" x1="132.47" y1="105.28" x2="155.48" y2="90.32"/><line class="cls-16" x1="133.8" y1="113.26" x2="144.81" y2="113.44"/><line class="cls-17" x1="148.11" y1="160.74" x2="105.35" y2="126.11"/><circle class="cls-18" cx="179.44" cy="113.97" r="56.39"/></g></svg>