<svg xmlns="http://www.w3.org/2000/svg" xmlns:xlink="http://www.w3.org/1999/xlink" viewBox="0 0 294.81 205.87"><defs><style>.cls-1,.cls-12,.cls-6,.cls-8{fill:none;}.cls-2{isolation:isolate;}.cls-3{fill:#e37577;}.cls-14,.cls-4,.cls-5{fill:#2c2c2c;}.cls-12,.cls-14,.cls-15,.cls-4,.cls-5,.cls-6,.cls-8{stroke:#fafafa;}.cls-14,.cls-4,.cls-5,.cls-6,.cls-8{stroke-linecap:round;stroke-linejoin:round;}.cls-4,.cls-8{stroke-width:0.5px;}.cls-5{stroke-width:0.7px;}.cls-14,.cls-15,.cls-6{stroke-width:0.3px;}.cls-7{fill:#6b41ff;}.cls-9{fill:#91f8f3;}.cls-10{fill:#8ff393;}.cls-11{fill:#fafafa;}.cls-12,.cls-15{stroke-miterlimit:10;}.cls-12{stroke-width:0.48px;}.cls-13{fill:url(#linear-gradient);}.cls-15{opacity:0.2;fill:url(#무제_그라디언트_22);}.cls-16{clip-path:url(#clip-path);}.cls-17{fill:url(#linear-gradient-2);}.cls-18{mix-blend-mode:multiply;}.cls-19{fill:url(#linear-gradient-3);}</style><linearGradient id="linear-gradient" x1="44.37" y1="215.75" x2="217.99" y2="153.8" gradientUnits="userSpaceOnUse"><stop offset="0.03" stop-color="#ddf8f3"/><stop offset="0.46" stop-color="#ecfcf8"/><stop offset="1" stop-color="#fbfffd"/></linearGradient><linearGradient id="무제_그라디언트_22" x1="67.05" y1="181.77" x2="174.24" y2="181.77" gradientUnits="userSpaceOnUse"><stop offset="0" stop-color="#c6b1ed" stop-opacity="0"/><stop offset="1" stop-color="#ded0f4"/></linearGradient><clipPath id="clip-path"><rect class="cls-1" x="73.56" y="119.27" width="94.5" height="51.27" rx="3" ry="3"/></clipPath><linearGradient id="linear-gradient-2" x1="68.42" y1="145.19" x2="199.09" y2="145.19" gradientUnits="userSpaceOnUse"><stop offset="0" stop-color="#c5f9f8"/><stop offset="0.04" stop-color="#bceee8"/><stop offset="0.06" stop-color="#beefe9"/><stop offset="0.21" stop-color="#d2f5ef"/><stop offset="0.38" stop-color="#e0faf3"/><stop offset="0.6" stop-color="#e8fcf5"/><stop offset="0.98" stop-color="#eafdf6"/></linearGradient><linearGradient id="linear-gradient-3" x1="79.36" y1="128.04" x2="201.45" y2="168.25" gradientUnits="userSpaceOnUse"><stop offset="0" stop-color="#c6b1ed" stop-opacity="0"/><stop offset="1" stop-color="#bea5ea" stop-opacity="0.8"/></linearGradient></defs><title>WARP_guide graphic_0218</title><g class="cls-2"><g id="graphic"><path class="cls-3" d="M212.51,125.1c0-.46-1.85-.39-3-1.63s-1.1-4-1.55-4-.41,2.8-1.55,4-3,1.17-3,1.63,1.85.39,3,1.63,1.1,4,1.55,4,.41-2.8,1.55-4S212.51,125.56,212.51,125.1Z"/><circle class="cls-4" cx="193.31" cy="136.44" r="2.12"/><path class="cls-4" d="M87.4,12.35a2.12,2.12,0,1,1,2.12,2.11A2.12,2.12,0,0,1,87.4,12.35Z"/><rect class="cls-5" x="48.52" y="51.24" width="151.04" height="47.37" rx="5" ry="5"/><line class="cls-6" x1="48.79" y1="63.43" x2="199.43" y2="63.43"/><path class="cls-7" d="M173.81,87.93H72.51a7.24,7.24,0,0,1-7.24-7.24h0a7.24,7.24,0,0,1,7.24-7.24h101.3a7.24,7.24,0,0,1,7.24,7.24h0A7.24,7.24,0,0,1,173.81,87.93Z"/><circle class="cls-8" cx="170" cy="79.89" r="3.58"/><line class="cls-8" x1="172.52" y1="82.41" x2="174.93" y2="84.82"/><path class="cls-9" d="M60.13,57.82a2.53,2.53,0,1,1-2.52-2.52A2.52,2.52,0,0,1,60.13,57.82Z"/><path class="cls-10" d="M68.33,57.82a2.53,2.53,0,1,1-2.52-2.52A2.52,2.52,0,0,1,68.33,57.82Z"/><path class="cls-3" d="M76.53,57.82A2.53,2.53,0,1,1,74,55.3,2.52,2.52,0,0,1,76.53,57.82Z"/><path class="cls-11" d="M73,76.71h1.3L76.57,83l-.2-.07L78,78.71l.51,1.49-2.19,5.12Zm4,0h1.1l2.43,6.22-.24,0,2.13-6.18h1.19L80.38,85.3Z"/><path class="cls-11" d="M83.42,84.93l3.6-8.6h.07l3.6,8.6H89.43l-2.7-6.86.79-.52-3,7.38Zm2.11-3.13H88.6l.37,1H85.21Z"/><path class="cls-11" d="M94.44,76.67a3.87,3.87,0,0,1,1.16.17,2.62,2.62,0,0,1,.92.49,2.25,2.25,0,0,1,.62.81,2.53,2.53,0,0,1,.22,1.09,3.1,3.1,0,0,1-.14,1,2.23,2.23,0,0,1-.47.85,2.29,2.29,0,0,1-.85.62,3.25,3.25,0,0,1-1.32.23H93.36v3H92.25V76.67Zm.11,4.15a2,2,0,0,0,.82-.15,1.36,1.36,0,0,0,.51-.38,1.67,1.67,0,0,0,.34-1,1.93,1.93,0,0,0-.08-.52,1.51,1.51,0,0,0-.28-.49,1.37,1.37,0,0,0-.49-.39,1.81,1.81,0,0,0-.74-.14H93.36v3.08Zm1.36.64,2.16,3.47H96.79l-2.2-3.44Z"/><path class="cls-11" d="M102,76.67a3.47,3.47,0,0,1,1.54.31,2.27,2.27,0,0,1,1,.87,2.62,2.62,0,0,1,.35,1.38,3.22,3.22,0,0,1-.15,1,2.4,2.4,0,0,1-.48.85,2.29,2.29,0,0,1-.85.62,3.05,3.05,0,0,1-1.28.23h-1.22v3H99.77V76.67Zm.11,4.15a1.89,1.89,0,0,0,.81-.15,1.4,1.4,0,0,0,.51-.41,2.05,2.05,0,0,0,.26-.51,1.63,1.63,0,0,0,0-1,1.43,1.43,0,0,0-.27-.5,1.52,1.52,0,0,0-.49-.36,1.68,1.68,0,0,0-.75-.14h-1.28v3.08Z"/><path class="cls-5" d="M188.42,102c0-.69-2.78-.59-4.51-2.46s-1.66-6.1-2.34-6.1-.62,4.23-2.34,6.1-4.51,1.77-4.51,2.46,2.79.59,4.51,2.46,1.67,6.1,2.34,6.1.62-4.23,2.34-6.1S188.42,102.65,188.42,102Z"/><line class="cls-12" x1="67.2" y1="20.49" x2="79.26" y2="32.55"/><line class="cls-12" x1="79.26" y1="20.49" x2="67.2" y2="32.55"/><line class="cls-12" x1="73.23" y1="17.99" x2="73.23" y2="35.05"/><line class="cls-12" x1="81.76" y1="26.52" x2="64.7" y2="26.52"/><path class="cls-13" d="M173.58,179.16a7.31,7.31,0,0,0-4.6-1.62H72.05a7.31,7.31,0,0,0-4.71,1.71L53.65,190.73a1.33,1.33,0,0,0,.85,2.35l133.84,0a.76.76,0,0,0,.48-1.34Z"/><rect class="cls-5" x="68.79" y="112.05" width="104.03" height="65.72" rx="5" ry="5"/><path class="cls-5" d="M173.58,179.16a7.31,7.31,0,0,0-4.6-1.62H72.05a7.31,7.31,0,0,0-4.71,1.71L53.65,190.73a1.33,1.33,0,0,0,.85,2.35l133.84,0a.76.76,0,0,0,.48-1.34Z"/><rect class="cls-14" x="73.56" y="119.27" width="94.5" height="51.27" rx="3" ry="3"/><path class="cls-9" d="M130.83,186.42a1.75,1.75,0,0,0-.91-.25H110.75a1.71,1.71,0,0,0-.93.26l-2.7,1.76c-.19.12-.08.36.16.36h26.47c.14,0,.2-.13.09-.2Z"/><path class="cls-15" d="M170.3,180.2a1.85,1.85,0,0,0-1.17-.41H71.85a1.88,1.88,0,0,0-1.2.43l-3.48,2.92a.34.34,0,0,0,.21.6H174.05a.19.19,0,0,0,.12-.34Z"/><g class="cls-16"><path class="cls-17" d="M192.21,179.19H70.28a1.77,1.77,0,0,1-1.86-1.68V112.43a1.3,1.3,0,0,1,1.37-1.23H192.7a1.31,1.31,0,0,1,1.37,1.23v65.08A1.78,1.78,0,0,1,192.21,179.19Z"/><g class="cls-18"><path class="cls-19" d="M192.21,179.19H70.28a1.77,1.77,0,0,1-1.86-1.68V112.43a1.3,1.3,0,0,1,1.37-1.23H192.7a1.31,1.31,0,0,1,1.37,1.23v65.08A1.78,1.78,0,0,1,192.21,179.19Z"/></g><rect class="cls-10" x="83.94" y="136.51" width="34.97" height="23.26" rx="3" ry="3"/><circle class="cls-9" cx="146.93" cy="153.22" r="10.26"/><rect class="cls-7" x="111.43" y="128.13" width="34.97" height="23.26" rx="3" ry="3"/></g></g></g></svg>