<svg xmlns="http://www.w3.org/2000/svg" xmlns:xlink="http://www.w3.org/1999/xlink" viewBox="0 0 294.81 205.87"><defs><style>.cls-1,.cls-6{fill:none;}.cls-2{isolation:isolate;}.cls-10,.cls-3{fill:#91f8f3;}.cls-3{mix-blend-mode:screen;}.cls-4{fill:#8ff393;}.cls-5,.cls-8,.cls-9{fill:#2c2c2c;stroke-linecap:round;stroke-linejoin:round;}.cls-11,.cls-5,.cls-6,.cls-8,.cls-9{stroke:#fafafa;}.cls-5{stroke-width:0.5px;}.cls-11,.cls-6{stroke-miterlimit:10;}.cls-6{stroke-width:0.48px;}.cls-7{fill:url(#linear-gradient);}.cls-8{stroke-width:0.7px;}.cls-11,.cls-9{stroke-width:0.3px;}.cls-11{opacity:0.2;fill:url(#무제_그라디언트_22);}.cls-12{clip-path:url(#clip-path);}.cls-13{fill:url(#linear-gradient-2);}.cls-14{fill:url(#무제_그라디언트_22-2);}.cls-15{fill:#6b41ff;}.cls-16{fill:url(#linear-gradient-3);}.cls-17{mix-blend-mode:multiply;}.cls-18{fill:url(#linear-gradient-4);}</style><linearGradient id="linear-gradient" x1="103.89" y1="212.87" x2="308.93" y2="139.72" gradientUnits="userSpaceOnUse"><stop offset="0.03" stop-color="#ddf8f3"/><stop offset="0.46" stop-color="#ecfcf8"/><stop offset="1" stop-color="#fbfffd"/></linearGradient><linearGradient id="무제_그라디언트_22" x1="130.68" y1="172.74" x2="257.26" y2="172.74" gradientUnits="userSpaceOnUse"><stop offset="0" stop-color="#c6b1ed" stop-opacity="0"/><stop offset="1" stop-color="#ded0f4"/></linearGradient><clipPath id="clip-path"><rect class="cls-1" x="138.36" y="98.94" width="111.59" height="60.54" rx="3" ry="3"/></clipPath><linearGradient id="linear-gradient-2" x1="133.48" y1="131.58" x2="250.68" y2="131.58" xlink:href="#linear-gradient"/><linearGradient id="무제_그라디언트_22-2" x1="184.02" y1="138.09" x2="256.62" y2="79.47" xlink:href="#무제_그라디언트_22"/><linearGradient id="linear-gradient-3" x1="1997.72" y1="-2323.09" x2="2076.62" y2="-2323.09" gradientTransform="matrix(-1.1, 0.19, 0.17, 0.99, 2689.62, 2047.38)" gradientUnits="userSpaceOnUse"><stop offset="0" stop-color="#c5f9f8"/><stop offset="0.04" stop-color="#bceee8"/><stop offset="0.06" stop-color="#beefe9"/><stop offset="0.21" stop-color="#d2f5ef"/><stop offset="0.38" stop-color="#e0faf3"/><stop offset="0.6" stop-color="#e8fcf5"/><stop offset="0.98" stop-color="#eafdf6"/></linearGradient><linearGradient id="linear-gradient-4" x1="2003.39" y1="-2333.75" x2="2079.31" y2="-2308.75" gradientTransform="matrix(-1.1, 0.19, 0.17, 0.99, 2689.62, 2047.38)" gradientUnits="userSpaceOnUse"><stop offset="0" stop-color="#c6b1ed" stop-opacity="0"/><stop offset="1" stop-color="#bea5ea" stop-opacity="0.8"/></linearGradient></defs><title>WARP_guide graphic_0218</title><g class="cls-2"><g id="graphic"><path class="cls-3" d="M19,179.73c0-.62-2.48-.53-4-2.2s-1.48-5.43-2.08-5.43-.56,3.77-2.09,5.43-4,1.58-4,2.2,2.49.52,4,2.19,1.48,5.43,2.09,5.43.55-3.77,2.08-5.43S19,180.34,19,179.73Z"/><path class="cls-4" d="M251.7,61c0-.45-1.82-.39-2.94-1.61s-1.09-4-1.53-4-.41,2.76-1.53,4-2.94,1.16-2.94,1.61,1.81.39,2.94,1.61,1.09,4,1.53,4,.4-2.76,1.53-4S251.7,61.44,251.7,61Z"/><path class="cls-5" d="M265.9,140.94a2.68,2.68,0,1,1-3,2.25A2.67,2.67,0,0,1,265.9,140.94Z"/><path class="cls-5" d="M5.76,153.18a3.54,3.54,0,1,1-4,3A3.54,3.54,0,0,1,5.76,153.18Z"/><line class="cls-6" x1="71.79" y1="56.19" x2="92.72" y2="77.12"/><line class="cls-6" x1="92.72" y1="56.19" x2="71.79" y2="77.12"/><line class="cls-6" x1="82.25" y1="51.85" x2="82.25" y2="81.46"/><line class="cls-6" x1="97.06" y1="66.66" x2="67.45" y2="66.66"/><path class="cls-7" d="M256.48,169.66a8.62,8.62,0,0,0-5.43-1.91H136.58a8.64,8.64,0,0,0-5.56,2l-16.16,13.56a1.57,1.57,0,0,0,1,2.77l158.05,0a.89.89,0,0,0,.57-1.58Z"/><rect class="cls-8" x="132.73" y="90.41" width="122.85" height="77.61" rx="5" ry="5"/><path class="cls-8" d="M256.48,169.66a8.62,8.62,0,0,0-5.43-1.91H136.58a8.64,8.64,0,0,0-5.56,2l-16.16,13.56a1.57,1.57,0,0,0,1,2.77l158.05,0a.89.89,0,0,0,.57-1.58Z"/><rect class="cls-9" x="138.36" y="98.94" width="111.59" height="60.54" rx="3" ry="3"/><path class="cls-10" d="M206,178.23a2.08,2.08,0,0,0-1.08-.29H182.29a2,2,0,0,0-1.1.31l-3.2,2.07c-.22.15-.09.43.2.43h31.25c.17,0,.24-.16.12-.24Z"/><path class="cls-11" d="M252.6,170.89a2.21,2.21,0,0,0-1.38-.49H136.35a2.24,2.24,0,0,0-1.42.52l-4.11,3.45a.39.39,0,0,0,.26.7H257a.22.22,0,0,0,.14-.4Z"/><g class="cls-12"><rect class="cls-13" x="133.48" y="95.19" width="117.2" height="72.77"/><rect class="cls-4" x="150.62" y="119.3" width="41.3" height="27.46" rx="3" ry="3"/><rect class="cls-14" x="133.48" y="95.19" width="117.2" height="72.77"/><circle class="cls-10" cx="225.01" cy="139.03" r="12.12"/><rect class="cls-15" x="183.09" y="109.4" width="41.3" height="27.46" rx="3" ry="3"/></g><path class="cls-8" d="M20.84,125.07,26.71,170c.34,2.62,2.45,4.35,4.72,3.86L113.73,156c2.26-.49,3.82-3,3.48-5.64l-5.87-44.92c-.34-2.62-2.45-4.35-4.72-3.86l-82.3,17.84C22.06,119.92,20.5,122.44,20.84,125.07Z"/><path class="cls-16" d="M33.06,168.57,111.33,152a1.31,1.31,0,0,0,1.06-1.38L106.89,107a.78.78,0,0,0-1-.64L27,123.11a1,1,0,0,0-.78,1l5.5,43.58A1.07,1.07,0,0,0,33.06,168.57Z"/><g class="cls-17"><path class="cls-18" d="M33.06,168.57,111.33,152a1.31,1.31,0,0,0,1.06-1.38L106.89,107a.78.78,0,0,0-1-.64L27,123.11a1,1,0,0,0-.78,1l5.5,43.58A1.07,1.07,0,0,0,33.06,168.57Z"/></g><path class="cls-15" d="M71.21,142.33l1.68-.31-5.84-8.66-.09,0-2.3,10.19,1.51-.29.48-2.34,3.25-.61Zm-4.31-2.72.62-3.13,1.7,2.7Z"/><path class="cls-15" d="M81.11,140.47l-3-3.06a3.33,3.33,0,0,0,.76-.84,2.8,2.8,0,0,0,.35-1.08,3.79,3.79,0,0,0,0-1.12,3.12,3.12,0,0,0-.48-1.22,2.56,2.56,0,0,0-.86-.78,3.21,3.21,0,0,0-1.18-.38,4.91,4.91,0,0,0-1.42.06l-2.61.49,1.74,9.2,1.47-.28-.6-3.2,1.34-.25.13,0,2.67,2.81Zm-6.72-6.79,1.36-.26a1.77,1.77,0,0,1,.83,0,1.23,1.23,0,0,1,.57.32,1.44,1.44,0,0,1,.36.47,1.69,1.69,0,0,1,.17.49,1.77,1.77,0,0,1,0,.52,1.67,1.67,0,0,1-.18.56,1.36,1.36,0,0,1-.44.49,1.85,1.85,0,0,1-.78.31l-1.32.25Z"/><path class="cls-15" d="M86.66,131.32a2.63,2.63,0,0,0-1.33-.8,4.29,4.29,0,0,0-1.86,0l-2.61.49,1.74,9.2,1.47-.28-.59-3.18,1.33-.26a3.42,3.42,0,0,0,1.4-.54,2.71,2.71,0,0,0,1.18-2,3.49,3.49,0,0,0,0-1.12A3.12,3.12,0,0,0,86.66,131.32Zm-.75,2.32a1.7,1.7,0,0,1-.17.57,1.37,1.37,0,0,1-.43.51,1.87,1.87,0,0,1-.78.32l-1.33.25-.59-3.16,1.36-.26a1.85,1.85,0,0,1,.85,0,1.22,1.22,0,0,1,.57.31,2.1,2.1,0,0,1,.34.46,2.14,2.14,0,0,1,.17.48A2.1,2.1,0,0,1,85.91,133.64Z"/><path class="cls-15" d="M63.77,134.22l-1.39.26h0l-.2,1-1,5.24-3.38-5.41-1.38.26,1.36,2.32L56.7,141.7l-3.42-5.51-1.37.26v0h-.07L57,145l.23,0h0l1.47-5.49.33.49,2.55,4.19.23,0h0Zm-2.57,6.54Z"/><path class="cls-15" d="M281.44,98c0,.58,2.35.5,3.81,2.08s1.41,5.15,2,5.15.52-3.57,2-5.15S293,98.56,293,98s-2.36-.5-3.81-2.08-1.41-5.15-2-5.15-.53,3.57-2,5.15S281.44,97.4,281.44,98Z"/></g></g></svg>