<svg xmlns="http://www.w3.org/2000/svg" xmlns:xlink="http://www.w3.org/1999/xlink" viewBox="0 0 294.81 205.87"><defs><style>.cls-1,.cls-3,.cls-7{fill:none;}.cls-2{isolation:isolate;}.cls-10,.cls-12,.cls-3,.cls-6,.cls-9{stroke:#fafafa;}.cls-10,.cls-3,.cls-6,.cls-9{stroke-linecap:round;stroke-linejoin:round;}.cls-4{fill:#6b41ff;}.cls-15,.cls-5{fill:#8ff393;}.cls-5{mix-blend-mode:screen;}.cls-10,.cls-6,.cls-9{fill:#2c2c2c;}.cls-6{stroke-width:0.5px;}.cls-7{stroke:#6b41ff;}.cls-12,.cls-7{stroke-miterlimit:10;}.cls-7,.cls-9{stroke-width:0.7px;}.cls-8{fill:url(#linear-gradient);}.cls-10,.cls-12{stroke-width:0.3px;}.cls-11{fill:#91f8f3;}.cls-12{opacity:0.2;fill:url(#무제_그라디언트_22);}.cls-13{clip-path:url(#clip-path);}.cls-14{fill:url(#linear-gradient-2);}.cls-16{fill:url(#무제_그라디언트_22-2);}.cls-17{fill:url(#linear-gradient-3);}.cls-18{fill:#d489ac;}</style><linearGradient id="linear-gradient" x1="3.9" y1="176" x2="194.19" y2="108.11" gradientUnits="userSpaceOnUse"><stop offset="0.03" stop-color="#ddf8f3"/><stop offset="0.46" stop-color="#ecfcf8"/><stop offset="1" stop-color="#fbfffd"/></linearGradient><linearGradient id="무제_그라디언트_22" x1="28.75" y1="138.76" x2="146.24" y2="138.76" gradientUnits="userSpaceOnUse"><stop offset="0" stop-color="#c6b1ed" stop-opacity="0"/><stop offset="1" stop-color="#ded0f4"/></linearGradient><clipPath id="clip-path"><rect id="SVGID" class="cls-1" x="35.89" y="70.27" width="103.57" height="56.19" rx="3" ry="3"/></clipPath><linearGradient id="linear-gradient-2" x1="31.36" y1="100.56" x2="140.13" y2="100.56" xlink:href="#linear-gradient"/><linearGradient id="무제_그라디언트_22-2" x1="78.26" y1="106.6" x2="145.65" y2="52.2" xlink:href="#무제_그라디언트_22"/><linearGradient id="linear-gradient-3" x1="190.22" y1="59.4" x2="272.94" y2="59.4" xlink:href="#linear-gradient"/></defs><title>WARP_guide graphic_0218</title><g class="cls-2"><g id="graphic"><polyline class="cls-3" points="272.6 196.95 231.47 93.05 190.35 196.95"/><line class="cls-3" x1="231.47" y1="93.05" x2="231.47" y2="175.3"/><path class="cls-4" d="M263,84.83a4.42,4.42,0,0,0-2.77-1H202.18A5,5,0,0,0,199,85l-6.77,5.67a1.42,1.42,0,0,0,.9,2.5l77.11,0a1.07,1.07,0,0,0,.68-1.89Z"/><path class="cls-5" d="M189.55,121c0,.62,2.51.53,4.06,2.22s1.5,5.49,2.11,5.49.56-3.81,2.11-5.49,4.06-1.6,4.06-2.22-2.51-.53-4.06-2.21-1.5-5.5-2.11-5.5-.56,3.81-2.11,5.5S189.55,120.37,189.55,121Z"/><line class="cls-6" x1="171.34" y1="43.03" x2="173.64" y2="52.98"/><line class="cls-6" x1="143.05" y1="46.09" x2="167.76" y2="58.36"/><path class="cls-6" d="M179.23,60.68a2.32,2.32,0,1,1-2.32-2.32A2.32,2.32,0,0,1,179.23,60.68Z"/><path class="cls-7" d="M153.91,143.45c-3.79-9.18-6.13-25.48,2.91-38.83,1.3-1.91,5.67-6.1,9.64-7.5,2.53-.88,8-1.32,10.49,1.09s5.13,13.12,1.79,12.27c-3.41-1.63-6.32-14.1-5.83-17.45,1.28-8.88,3.81-16.25,16.57-19.65"/><path class="cls-8" d="M145.51,135.9a8,8,0,0,0-5-1.77H34.23A8,8,0,0,0,29.08,136l-15,12.59a1.45,1.45,0,0,0,.94,2.56l146.68,0a.83.83,0,0,0,.52-1.47Z"/><rect class="cls-9" x="30.66" y="62.35" width="114.02" height="72.03" rx="5" ry="5"/><path class="cls-9" d="M145.51,135.9a8,8,0,0,0-5-1.77H34.23A8,8,0,0,0,29.08,136l-15,12.59a1.45,1.45,0,0,0,.94,2.56l146.68,0a.83.83,0,0,0,.52-1.47Z"/><rect class="cls-10" x="35.89" y="70.27" width="103.57" height="56.19" rx="3" ry="3"/><path class="cls-11" d="M98.66,143.86a1.85,1.85,0,0,0-1-.27h-21a1.9,1.9,0,0,0-1,.28l-3,1.93c-.21.13-.08.39.18.39h29c.15,0,.22-.15.1-.23Z"/><path class="cls-12" d="M141.91,137a2,2,0,0,0-1.28-.45H34a2.06,2.06,0,0,0-1.32.48l-3.81,3.2a.37.37,0,0,0,.23.65H146a.21.21,0,0,0,.13-.37Z"/><g class="cls-13"><rect class="cls-14" x="31.36" y="66.79" width="108.77" height="67.54"/><rect class="cls-15" x="47.27" y="89.16" width="38.33" height="25.49" rx="3" ry="3"/><rect class="cls-16" x="31.36" y="66.79" width="108.77" height="67.54"/><circle class="cls-11" cx="116.31" cy="107.48" r="11.24"/><rect class="cls-4" x="77.4" y="79.97" width="38.33" height="25.49" rx="3" ry="3"/></g><circle class="cls-4" cx="215.79" cy="60.68" r="11.66" transform="translate(20.3 170.36) rotate(-45)"/><circle class="cls-4" cx="215.79" cy="60.68" r="8.94" transform="translate(20.3 170.36) rotate(-45)"/><path class="cls-17" d="M272.94,63.67l-9.88-8a4.21,4.21,0,0,0-2.66-.94H202.53a4.24,4.24,0,0,0-2.73,1l-9.52,8a.17.17,0,0,0,.11.29h82.55Z"/><path class="cls-18" d="M190.33,64.89h82.51a.33.33,0,0,1,.33.33V86.69a2.47,2.47,0,0,1-2.47,2.47H192.47A2.47,2.47,0,0,1,190,86.69V65.22A.33.33,0,0,1,190.33,64.89Z"/><path class="cls-9" d="M190,64.84V86a2.94,2.94,0,0,0,2.94,2.94h77.29A2.93,2.93,0,0,0,273.17,86V64.85a1.16,1.16,0,0,0-.41-.89l-9.67-8.22a4.32,4.32,0,0,0-2.74-1H202.57a4.35,4.35,0,0,0-2.8,1L190.4,64A1.18,1.18,0,0,0,190,64.84Z"/><line class="cls-10" x1="192.3" y1="64.5" x2="270.6" y2="64.5"/><path class="cls-11" d="M200,70.53a2.15,2.15,0,1,1-2.14-2.15A2.14,2.14,0,0,1,200,70.53Z"/></g></g></svg>