<svg xmlns="http://www.w3.org/2000/svg" xmlns:xlink="http://www.w3.org/1999/xlink" viewBox="0 0 294.81 205.87"><defs><style>.cls-1{isolation:isolate;}.cls-2{fill:url(#무제_그라디언트_22);}.cls-19,.cls-3,.cls-4{fill:none;}.cls-11,.cls-12,.cls-15,.cls-3,.cls-4{stroke-linecap:round;stroke-linejoin:round;}.cls-11,.cls-3,.cls-4{stroke-width:0.7px;}.cls-3,.cls-4{opacity:0.3;}.cls-3{stroke:url(#무제_그라디언트_17);}.cls-4{stroke:url(#무제_그라디언트_17-2);}.cls-5{fill:url(#linear-gradient);}.cls-6{mix-blend-mode:multiply;}.cls-7{fill:url(#linear-gradient-2);}.cls-8{fill:#6b41ff;}.cls-9{fill:url(#linear-gradient-3);}.cls-10{fill:#d489ac;}.cls-11,.cls-12,.cls-15{fill:#2c2c2c;}.cls-11,.cls-12,.cls-15,.cls-19{stroke:#fafafa;}.cls-12,.cls-19{stroke-width:0.3px;}.cls-13{fill:#91f8f3;}.cls-14{fill:#8ff393;}.cls-15{stroke-width:0.5px;}.cls-16{fill:url(#linear-gradient-4);}.cls-17{fill:url(#linear-gradient-5);}.cls-18{fill:#fafafa;}.cls-19{stroke-miterlimit:10;}</style><linearGradient id="무제_그라디언트_22" x1="120.66" y1="145.12" x2="120.66" y2="43.13" gradientUnits="userSpaceOnUse"><stop offset="0" stop-color="#c6b1ed" stop-opacity="0"/><stop offset="1" stop-color="#ded0f4"/></linearGradient><linearGradient id="무제_그라디언트_17" x1="119.82" y1="79.9" x2="205.51" y2="79.9" gradientUnits="userSpaceOnUse"><stop offset="0" stop-color="#fff"/><stop offset="0.37" stop-color="#fff" stop-opacity="0.99"/><stop offset="0.51" stop-color="#fff" stop-opacity="0.97"/><stop offset="0.6" stop-color="#fff" stop-opacity="0.92"/><stop offset="0.68" stop-color="#fff" stop-opacity="0.85"/><stop offset="0.75" stop-color="#fff" stop-opacity="0.77"/><stop offset="0.8" stop-color="#fff" stop-opacity="0.66"/><stop offset="0.86" stop-color="#fff" stop-opacity="0.53"/><stop offset="0.91" stop-color="#fff" stop-opacity="0.39"/><stop offset="0.95" stop-color="#fff" stop-opacity="0.22"/><stop offset="0.99" stop-color="#fff" stop-opacity="0.04"/><stop offset="1" stop-color="#fff" stop-opacity="0"/></linearGradient><linearGradient id="무제_그라디언트_17-2" x1="36.22" y1="80.28" x2="112.02" y2="80.28" xlink:href="#무제_그라디언트_17"/><linearGradient id="linear-gradient" x1="35.73" y1="57.93" x2="213.9" y2="57.93" gradientUnits="userSpaceOnUse"><stop offset="0" stop-color="#c5f9f8"/><stop offset="0.04" stop-color="#bceee8"/><stop offset="0.06" stop-color="#beefe9"/><stop offset="0.21" stop-color="#d2f5ef"/><stop offset="0.38" stop-color="#e0faf3"/><stop offset="0.6" stop-color="#e8fcf5"/><stop offset="0.98" stop-color="#eafdf6"/></linearGradient><linearGradient id="linear-gradient-2" x1="50.65" y1="34.54" x2="217.12" y2="89.38" gradientUnits="userSpaceOnUse"><stop offset="0" stop-color="#c6b1ed" stop-opacity="0"/><stop offset="1" stop-color="#bea5ea" stop-opacity="0.8"/></linearGradient><linearGradient id="linear-gradient-3" x1="90.4" y1="154.58" x2="171.71" y2="154.58" gradientUnits="userSpaceOnUse"><stop offset="0.03" stop-color="#ddf8f3"/><stop offset="0.46" stop-color="#ecfcf8"/><stop offset="1" stop-color="#fbfffd"/></linearGradient><linearGradient id="linear-gradient-4" x1="161.83" y1="184.26" x2="211.16" y2="184.26" xlink:href="#linear-gradient"/><linearGradient id="linear-gradient-5" x1="165.96" y1="177.79" x2="212.05" y2="192.97" xlink:href="#linear-gradient-2"/></defs><title>WARP_guide graphic_0218</title><g class="cls-1"><g id="graphic"><polygon class="cls-2" points="36.93 103.89 109.22 146.7 121.06 147.16 204.4 104.39 36.93 103.89"/><polyline class="cls-3" points="204.93 12.63 120.17 147.17 205.16 103.54"/><polyline class="cls-4" points="37.34 12.87 111.67 147.68 36.57 103.23"/><path class="cls-5" d="M204.51,104.29H38.27A2.43,2.43,0,0,1,35.73,102V13.26a1.79,1.79,0,0,1,1.87-1.68H205.18a1.78,1.78,0,0,1,1.87,1.68V102A2.42,2.42,0,0,1,204.51,104.29Z"/><g class="cls-6"><path class="cls-7" d="M204.51,104.29H38.27A2.43,2.43,0,0,1,35.73,102V13.26a1.79,1.79,0,0,1,1.87-1.68H205.18a1.78,1.78,0,0,1,1.87,1.68V102A2.42,2.42,0,0,1,204.51,104.29Z"/></g><path class="cls-8" d="M101,39.66h4.86V57.19h-3.11V42.64H101Z"/><path class="cls-8" d="M112.55,39.66h4.86V57.19H114.3V42.64h-1.75Z"/><path class="cls-8" d="M124.1,39.66H129V57.19h-3.11V42.64H124.1Z"/><path class="cls-8" d="M135.65,39.66h4.86V57.19H137.4V42.64h-1.75Z"/><path class="cls-8" d="M86.24,66.3a3.86,3.86,0,0,1,1.67.33,2.42,2.42,0,0,1,1.07,1,2.8,2.8,0,0,1,.37,1.48,3.29,3.29,0,0,1-.16,1,2.5,2.5,0,0,1-.5.92,2.57,2.57,0,0,1-.9.66,3.28,3.28,0,0,1-1.35.26H85.19v3H83.8V66.3Zm.18,4.27a1.76,1.76,0,0,0,.77-.15,1.3,1.3,0,0,0,.47-.39,1.74,1.74,0,0,0,.25-.49,1.55,1.55,0,0,0,0-.92,1.58,1.58,0,0,0-.23-.47,1.1,1.1,0,0,0-.46-.38,1.69,1.69,0,0,0-.76-.15H85.19v2.95Z"/><path class="cls-8" d="M91,66.3H92.4v8.59H91Z"/><path class="cls-8" d="M102.31,75.2l-6.6-6.4.42.17,0,5.92H94.76V66h.07l6.47,6.4-.3-.09,0-6h1.37v8.9Z"/><path class="cls-8" d="M116.05,75.2l-6.6-6.4.41.17,0,5.92h-1.39V66h.07L115,72.4l-.31-.09,0-6h1.37v8.9Z"/><path class="cls-8" d="M119.69,71.8a1.68,1.68,0,0,0,.27.93,2,2,0,0,0,.7.67,1.82,1.82,0,0,0,1,.26,1.9,1.9,0,0,0,1-.26,2.11,2.11,0,0,0,.72-.67,1.68,1.68,0,0,0,.26-.93V66.3H125v5.52a3.06,3.06,0,0,1-.45,1.66,3,3,0,0,1-1.21,1.11,3.81,3.81,0,0,1-3.36,0,3,3,0,0,1-1.65-2.77V66.3h1.38Z"/><path class="cls-8" d="M127.2,74.89V66h0l4.63,6.55-.59-.13,4.6-6.42h0v8.9H134.5V69.1l.08.69-3.1,4.4h0l-3.16-4.4.23-.64v5.74Z"/><path class="cls-8" d="M140.58,66.3a3.6,3.6,0,0,1,2.07.53,1.84,1.84,0,0,1,.76,1.63,2.11,2.11,0,0,1-1.28,2,3.21,3.21,0,0,1-1.4.29l-.2-.72a4.84,4.84,0,0,1,1.68.3,2.87,2.87,0,0,1,1.18.82,1.87,1.87,0,0,1,.45,1.26,2.41,2.41,0,0,1-.25,1.12,2.22,2.22,0,0,1-.66.76,2.78,2.78,0,0,1-.94.43,3.88,3.88,0,0,1-1.07.14h-2.69V66.3ZM140.8,70a1.11,1.11,0,0,0,.91-.36,1.35,1.35,0,0,0,.29-.86,1,1,0,0,0-.37-.84,1.57,1.57,0,0,0-1-.28h-1V70Zm0,3.66a2.42,2.42,0,0,0,.79-.13,1.32,1.32,0,0,0,.57-.39,1,1,0,0,0,.21-.66.92.92,0,0,0-.25-.7,1.31,1.31,0,0,0-.62-.35,2.6,2.6,0,0,0-.79-.11h-1.15v2.34Z"/><path class="cls-8" d="M145.67,66.3h5.7v1.32h-4.32v2.29h3.84v1.32h-3.84v2.34h4.48v1.32h-5.86Z"/><path class="cls-8" d="M155.86,66.3a4.06,4.06,0,0,1,1.29.19,3,3,0,0,1,1,.53,2.37,2.37,0,0,1,.64.86,2.89,2.89,0,0,1,.22,1.18,3.6,3.6,0,0,1-.15,1,2.67,2.67,0,0,1-.5.92,2.61,2.61,0,0,1-.91.66,3.62,3.62,0,0,1-1.4.24h-1.25v3h-1.38V66.3Zm.18,4.27a1.82,1.82,0,0,0,.75-.14,1.25,1.25,0,0,0,.49-.37,1.34,1.34,0,0,0,.25-.47,1.72,1.72,0,0,0,.08-.48,1.67,1.67,0,0,0-.07-.47,1.71,1.71,0,0,0-.24-.49,1.27,1.27,0,0,0-.47-.38,1.65,1.65,0,0,0-.74-.15h-1.28v2.95Zm1.49.84,2.19,3.48h-1.6l-2.24-3.45Z"/><circle class="cls-8" cx="115.53" cy="155.83" r="11.47" transform="translate(-62.68 232.47) rotate(-76.72)"/><circle class="cls-8" cx="115.53" cy="155.83" r="8.79" transform="translate(-62.68 232.47) rotate(-76.72)"/><path class="cls-9" d="M171.71,158.78,162,151a4.15,4.15,0,0,0-2.62-.93H102.49a4.17,4.17,0,0,0-2.68,1l-9.35,7.85a.16.16,0,0,0,.1.28h81.15Z"/><path class="cls-10" d="M90.51,160h81.1a.33.33,0,0,1,.33.33v21.06a2.47,2.47,0,0,1-2.47,2.47H92.65a2.47,2.47,0,0,1-2.47-2.47V160.3A.33.33,0,0,1,90.51,160Z"/><path class="cls-11" d="M90.18,159.92v20.79a2.89,2.89,0,0,0,2.89,2.89h76a2.9,2.9,0,0,0,2.89-2.89V159.93a1.15,1.15,0,0,0-.41-.88L162,151a4.35,4.35,0,0,0-2.7-.95h-56.8a4.29,4.29,0,0,0-2.76,1l-9.21,8A1.16,1.16,0,0,0,90.18,159.92Z"/><line class="cls-12" x1="92.44" y1="159.59" x2="169.42" y2="159.59"/><circle class="cls-13" cx="97.91" cy="165.52" r="2.11"/><path class="cls-14" d="M199.15,128.37c0,.53,2.14.46,3.46,1.89s1.28,4.69,1.8,4.69.48-3.25,1.8-4.69,3.46-1.36,3.46-1.89-2.14-.45-3.46-1.89-1.28-4.69-1.8-4.69-.48,3.26-1.8,4.69S199.15,127.84,199.15,128.37Z"/><line class="cls-15" x1="213.03" y1="155.13" x2="215.73" y2="144.45"/><line class="cls-15" x1="219.44" y1="158.02" x2="244.3" y2="143.25"/><path class="cls-15" d="M229.05,167a2,2,0,1,1-2,2A2,2,0,0,1,229.05,167Z"/><rect class="cls-11" x="170.19" y="154.67" width="30.71" height="59.18" rx="2.9" ry="2.9" transform="translate(1.28 369.81) rotate(-90)"/><path class="cls-16" d="M208.56,197.1h-46a.66.66,0,0,1-.7-.63V171.9a.49.49,0,0,1,.52-.47h46.4a.5.5,0,0,1,.52.47v24.57A.67.67,0,0,1,208.56,197.1Z"/><g class="cls-6"><path class="cls-17" d="M208.56,197.1h-46a.66.66,0,0,1-.7-.63V171.9a.49.49,0,0,1,.52-.47h46.4a.5.5,0,0,1,.52.47v24.57A.67.67,0,0,1,208.56,197.1Z"/></g><rect class="cls-12" x="169.97" y="174.31" width="31.16" height="22.35" rx="3" ry="3"/><path class="cls-8" d="M190.26,193.79h-9.43a1.91,1.91,0,0,1-1.9-1.91h0a1.9,1.9,0,0,1,1.9-1.9h9.43a1.9,1.9,0,0,1,1.9,1.9h0A1.91,1.91,0,0,1,190.26,193.79Z"/><path class="cls-18" d="M179.25,180.44h1.2V185h-.68V181.1h-.52Z"/><path class="cls-18" d="M182.94,180.44h1.2V185h-.67V181.1h-.53Z"/><path class="cls-18" d="M186.63,180.44h1.2V185h-.67V181.1h-.53Z"/><path class="cls-18" d="M190.32,180.44h1.2V185h-.67V181.1h-.53Z"/><line class="cls-19" x1="178.3" y1="186.41" x2="181.37" y2="186.41"/><line class="cls-19" x1="182.15" y1="186.41" x2="185.22" y2="186.41"/><line class="cls-19" x1="186" y1="186.41" x2="189.07" y2="186.41"/><line class="cls-19" x1="189.77" y1="186.41" x2="192.84" y2="186.41"/></g></g></svg>