<svg xmlns="http://www.w3.org/2000/svg" xmlns:xlink="http://www.w3.org/1999/xlink" viewBox="0 0 467.99 192.39"><defs><style>.cls-1,.cls-11,.cls-12,.cls-22,.cls-3,.cls-5{fill:none;}.cls-2{isolation:isolate;}.cls-10,.cls-16,.cls-17,.cls-3,.cls-5{stroke-linecap:round;stroke-linejoin:round;}.cls-16,.cls-22,.cls-3,.cls-5{stroke-width:0.7px;}.cls-3{stroke:url(#무제_그라디언트_15);}.cls-4{fill:url(#무제_그라디언트_15-2);}.cls-5{stroke:url(#무제_그라디언트_17);}.cls-6{fill:url(#무제_그라디언트_17-2);}.cls-18,.cls-7{fill:#91f8f3;}.cls-7{mix-blend-mode:screen;}.cls-8{fill:#e37577;}.cls-9{fill:#8ff393;}.cls-10,.cls-16,.cls-17{fill:#2c2c2c;}.cls-10,.cls-11,.cls-12,.cls-16,.cls-17,.cls-24{stroke:#fafafa;}.cls-10,.cls-11{stroke-width:0.5px;}.cls-11,.cls-12,.cls-22,.cls-24{stroke-miterlimit:10;}.cls-12{stroke-width:0.48px;}.cls-13{fill:#6b41ff;}.cls-14{fill:url(#linear-gradient);}.cls-15{fill:#d489ac;}.cls-17,.cls-24{stroke-width:0.3px;}.cls-19{fill:url(#linear-gradient-2);}.cls-20{mix-blend-mode:multiply;}.cls-21{fill:url(#linear-gradient-3);}.cls-22{stroke:#6b41ff;}.cls-23{fill:url(#linear-gradient-4);}.cls-24{opacity:0.2;fill:url(#무제_그라디언트_22);}.cls-25{clip-path:url(#clip-path);}.cls-26{fill:url(#linear-gradient-5);}.cls-27{fill:url(#무제_그라디언트_22-2);}.cls-28{clip-path:url(#clip-path-2);}</style><linearGradient id="무제_그라디언트_15" x1="223.47" y1="81.26" x2="329.93" y2="81.26" gradientUnits="userSpaceOnUse"><stop offset="0" stop-color="#fff" stop-opacity="0"/><stop offset="0.01" stop-color="#fff" stop-opacity="0.04"/><stop offset="0.05" stop-color="#fff" stop-opacity="0.22"/><stop offset="0.09" stop-color="#fff" stop-opacity="0.39"/><stop offset="0.14" stop-color="#fff" stop-opacity="0.53"/><stop offset="0.2" stop-color="#fff" stop-opacity="0.66"/><stop offset="0.25" stop-color="#fff" stop-opacity="0.77"/><stop offset="0.32" stop-color="#fff" stop-opacity="0.85"/><stop offset="0.4" stop-color="#fff" stop-opacity="0.92"/><stop offset="0.49" stop-color="#fff" stop-opacity="0.97"/><stop offset="0.63" stop-color="#fff" stop-opacity="0.99"/><stop offset="1" stop-color="#fff"/></linearGradient><linearGradient id="무제_그라디언트_15-2" x1="223.47" y1="41.16" x2="329.93" y2="41.16" xlink:href="#무제_그라디언트_15"/><linearGradient id="무제_그라디언트_17" x1="114.16" y1="110.11" x2="220.63" y2="110.11" gradientUnits="userSpaceOnUse"><stop offset="0" stop-color="#fff"/><stop offset="0.37" stop-color="#fff" stop-opacity="0.99"/><stop offset="0.51" stop-color="#fff" stop-opacity="0.97"/><stop offset="0.6" stop-color="#fff" stop-opacity="0.92"/><stop offset="0.68" stop-color="#fff" stop-opacity="0.85"/><stop offset="0.75" stop-color="#fff" stop-opacity="0.77"/><stop offset="0.8" stop-color="#fff" stop-opacity="0.66"/><stop offset="0.86" stop-color="#fff" stop-opacity="0.53"/><stop offset="0.91" stop-color="#fff" stop-opacity="0.39"/><stop offset="0.95" stop-color="#fff" stop-opacity="0.22"/><stop offset="0.99" stop-color="#fff" stop-opacity="0.04"/><stop offset="1" stop-color="#fff" stop-opacity="0"/></linearGradient><linearGradient id="무제_그라디언트_17-2" x1="114.16" y1="150.21" x2="220.63" y2="150.21" xlink:href="#무제_그라디언트_17"/><linearGradient id="linear-gradient" x1="52.21" y1="253.35" x2="169.85" y2="253.35" gradientTransform="matrix(0.99, -0.11, 0.11, 0.99, 37.27, -171.32)" gradientUnits="userSpaceOnUse"><stop offset="0.03" stop-color="#ddf8f3"/><stop offset="0.46" stop-color="#ecfcf8"/><stop offset="1" stop-color="#fbfffd"/></linearGradient><linearGradient id="linear-gradient-2" x1="1522" y1="-2334.53" x2="1575.04" y2="-2334.53" gradientTransform="matrix(1.07, 0.31, -0.28, 0.96, -2090.54, 1912.92)" gradientUnits="userSpaceOnUse"><stop offset="0" stop-color="#c5f9f8"/><stop offset="0.04" stop-color="#bceee8"/><stop offset="0.06" stop-color="#beefe9"/><stop offset="0.21" stop-color="#d2f5ef"/><stop offset="0.38" stop-color="#e0faf3"/><stop offset="0.6" stop-color="#e8fcf5"/><stop offset="0.98" stop-color="#eafdf6"/></linearGradient><linearGradient id="linear-gradient-3" x1="1525.81" y1="-2341.69" x2="1576.84" y2="-2324.88" gradientTransform="matrix(1.07, 0.31, -0.28, 0.96, -2090.54, 1912.92)" gradientUnits="userSpaceOnUse"><stop offset="0" stop-color="#c6b1ed" stop-opacity="0"/><stop offset="1" stop-color="#bea5ea" stop-opacity="0.8"/></linearGradient><linearGradient id="linear-gradient-4" x1="261.78" y1="148.11" x2="370.6" y2="109.29" gradientTransform="matrix(1, 0, 0, 1, 0, 0)" xlink:href="#linear-gradient"/><linearGradient id="무제_그라디언트_22" x1="275.99" y1="126.82" x2="343.18" y2="126.82" gradientUnits="userSpaceOnUse"><stop offset="0" stop-color="#c6b1ed" stop-opacity="0"/><stop offset="1" stop-color="#ded0f4"/></linearGradient><clipPath id="clip-path"><rect class="cls-1" x="280.07" y="87.65" width="59.23" height="32.13" rx="3" ry="3"/></clipPath><linearGradient id="linear-gradient-5" x1="277.48" y1="104.97" x2="339.69" y2="104.97" gradientTransform="matrix(1, 0, 0, 1, 0, 0)" xlink:href="#linear-gradient"/><linearGradient id="무제_그라디언트_22-2" x1="304.3" y1="108.42" x2="342.84" y2="77.31" xlink:href="#무제_그라디언트_22"/><clipPath id="clip-path-2"><rect class="cls-1" x="186.28" y="-154.53" width="205.95" height="104.67"/></clipPath></defs><title>WARP_guide graphic_0218</title><g class="cls-2"><g id="graphic"><path class="cls-3" d="M229.34,42.21C286.08,12,330.89,10,329.55,38s-48.68,75.68-105.73,106.28"/><polygon class="cls-4" points="232.71 43.71 232.9 43.04 229.58 42.1 230.76 38.85 230.1 38.62 228.67 42.57 232.71 43.71"/><path class="cls-5" d="M214.76,149.17c-56.74,30.26-101.55,32.16-100.22,4.18S163.22,77.67,220.28,47.07"/><polygon class="cls-6" points="211.38 147.67 211.19 148.34 214.51 149.28 213.33 152.52 213.99 152.76 215.43 148.81 211.38 147.67"/><path class="cls-7" d="M98.79,110.11c0-.76-3.08-.65-5-2.72s-1.84-6.74-2.59-6.74-.69,4.68-2.59,6.74-5,2-5,2.72,3.08.66,5,2.72,1.84,6.75,2.59,6.75.69-4.68,2.59-6.75S98.79,110.88,98.79,110.11Z"/><path class="cls-8" d="M111.91,66.12c0-.55-2.25-.48-3.65-2s-1.35-4.94-1.9-4.94-.5,3.43-1.9,4.94-3.65,1.44-3.65,2,2.26.48,3.65,2,1.35,4.94,1.9,4.94.51-3.43,1.9-4.94S111.91,66.68,111.91,66.12Z"/><path class="cls-9" d="M358,102.17c0-.56-2.26-.48-3.65-2s-1.35-4.94-1.9-4.94-.5,3.43-1.9,4.94-3.65,1.44-3.65,2,2.26.48,3.65,2,1.35,4.94,1.9,4.94.5-3.42,1.9-4.94S358,102.73,358,102.17Z"/><path class="cls-10" d="M260.31,147.71a3.9,3.9,0,1,1-4.44,3.27A3.9,3.9,0,0,1,260.31,147.71Z"/><line class="cls-11" x1="133.2" y1="48.59" x2="126.05" y2="29.86"/><line class="cls-11" x1="121.05" y1="53.15" x2="91.68" y2="25.3"/><circle class="cls-10" cx="190.32" cy="44.64" r="3.04"/><line class="cls-12" x1="363.91" y1="66.12" x2="376.82" y2="79.03"/><line class="cls-12" x1="376.82" y1="66.12" x2="363.91" y2="79.03"/><line class="cls-12" x1="370.36" y1="63.45" x2="370.36" y2="81.7"/><line class="cls-12" x1="379.49" y1="72.58" x2="361.24" y2="72.58"/><line class="cls-12" x1="58.21" y1="76.73" x2="71.11" y2="89.64"/><line class="cls-12" x1="71.11" y1="76.73" x2="58.21" y2="89.64"/><line class="cls-12" x1="64.66" y1="74.06" x2="64.66" y2="92.31"/><line class="cls-12" x1="73.79" y1="83.18" x2="55.54" y2="83.18"/><circle class="cls-13" cx="153.42" cy="72.53" r="16.59" transform="translate(-15.31 54.45) rotate(-19.19)"/><path class="cls-13" d="M166.05,71.13A12.71,12.71,0,1,1,152,59.9,12.7,12.7,0,0,1,166.05,71.13Z"/><path class="cls-14" d="M234.67,67.81l-15.2-9.71a6,6,0,0,0-3.92-.92l-81.8,9.07a6.09,6.09,0,0,0-3.7,1.83L117.84,80.86a.23.23,0,0,0,.19.39l116.7-12.94Z"/><path class="cls-15" d="M119.5,75.89H237.13a.33.33,0,0,1,.33.33v31.72a2.47,2.47,0,0,1-2.47,2.47H121.64a2.47,2.47,0,0,1-2.47-2.47V76.23a.33.33,0,0,1,.33-.33Z" transform="translate(-9.18 20.21) rotate(-6.33)"/><path class="cls-16" d="M117.62,82.45l3.31,29.89a4.18,4.18,0,0,0,4.62,3.69l109.26-12.11a4.18,4.18,0,0,0,3.7-4.62l-3.32-29.87a1.63,1.63,0,0,0-.72-1.2l-14.95-10.1a6.23,6.23,0,0,0-4-.94l-81.68,9a6.21,6.21,0,0,0-3.8,1.89l-12,13A1.62,1.62,0,0,0,117.62,82.45Z"/><line class="cls-17" x1="120.82" y1="81.61" x2="231.51" y2="69.34"/><path class="cls-18" d="M132.66,88.92a3,3,0,1,1-3.37-2.69A3.05,3.05,0,0,1,132.66,88.92Z"/><path class="cls-16" d="M240.27,139.45,233,169a2.75,2.75,0,0,1-3.44,2.23L175.91,153.2a3.35,3.35,0,0,1-1.9-4l7.26-29.57a2.74,2.74,0,0,1,3.44-2.23l53.66,18A3.36,3.36,0,0,1,240.27,139.45Z"/><path class="cls-19" d="M228.87,167.6l-51.06-16.92a.87.87,0,0,1-.6-1L184.13,121a.52.52,0,0,1,.7-.35l51.48,17.05a.66.66,0,0,1,.44.74l-6.92,28.7A.72.72,0,0,1,228.87,167.6Z"/><g class="cls-20"><path class="cls-21" d="M228.87,167.6l-51.06-16.92a.87.87,0,0,1-.6-1L184.13,121a.52.52,0,0,1,.7-.35l51.48,17.05a.66.66,0,0,1,.44.74l-6.92,28.7A.72.72,0,0,1,228.87,167.6Z"/></g><path class="cls-13" d="M216.92,143a13.31,13.31,0,0,0-7.33-7.12,12,12,0,0,0-5.13-.7,11.52,11.52,0,0,0-5.28,1.87.86.86,0,0,0-.31.87.71.71,0,0,0,.37.51.68.68,0,0,0,.65,0,10,10,0,0,1,8.83-1.16c.43.15.86.32,1.29.52a11.5,11.5,0,0,1,4,3.26,14.9,14.9,0,0,1,1.71,2.75.71.71,0,0,0,.4.37.58.58,0,0,0,.52-.08A.85.85,0,0,0,216.92,143Z"/><path class="cls-13" d="M207.62,141.34a8,8,0,0,1,1.75.84,8.11,8.11,0,0,1,2.88,3.4.67.67,0,0,0,.38.38.62.62,0,0,0,.73-.24.88.88,0,0,0,.06-.9,9.11,9.11,0,0,0-4.94-4.83h0a8,8,0,0,0-5.33-.11,7.6,7.6,0,0,0-1.83.9.83.83,0,0,0-.34.77.79.79,0,0,0,.35.59.67.67,0,0,0,.71,0A6.4,6.4,0,0,1,207.62,141.34Z"/><path class="cls-13" d="M206.91,144l-.18,0a6.71,6.71,0,0,0-.75-.11,4,4,0,0,0-2.56.69.84.84,0,0,0-.29,1,.72.72,0,0,0,.39.41.65.65,0,0,0,.57-.07,3,3,0,0,1,2.55-.36,3.94,3.94,0,0,1,1.1.62,3.86,3.86,0,0,1,1,1.35.63.63,0,0,0,.89.3.77.77,0,0,0,.33-.47.91.91,0,0,0-.06-.61A5.14,5.14,0,0,0,206.91,144Z"/><path class="cls-13" d="M206.11,148h0a1.35,1.35,0,0,0-1.71,1.1,1.77,1.77,0,0,0,.11,1.22,1.42,1.42,0,0,0,.83.77A1.36,1.36,0,0,0,207,150,1.66,1.66,0,0,0,206.11,148Z"/><path class="cls-22" d="M261.68,120.6c-22.17-5.36-37.62-15-38-18.39-1.45-14.48,60.78-16.26,79-48.5,3.24-5.72,2.56-11.83-3.08-12.09-13.52-.61-28.51,23.3-51.83,27.05"/><rect class="cls-18" x="237.26" y="71.77" width="3.14" height="3.16" transform="translate(283.81 319.11) rotate(-117.45)"/><rect class="cls-16" x="241.84" y="66.28" width="3.99" height="8.94" rx="1" ry="1" transform="translate(293.44 319.75) rotate(-117.45)"/><path class="cls-23" d="M342.77,125.18a4.61,4.61,0,0,0-2.89-1H279.13a4.55,4.55,0,0,0-2.95,1.08l-8.58,7.19a.83.83,0,0,0,.53,1.47l83.88,0a.48.48,0,0,0,.31-.84Z"/><rect class="cls-16" x="277.08" y="83.12" width="65.2" height="41.19" rx="5" ry="5"/><path class="cls-16" d="M342.77,125.18a4.61,4.61,0,0,0-2.89-1H279.13a4.55,4.55,0,0,0-2.95,1.08l-8.58,7.19a.83.83,0,0,0,.53,1.47l83.88,0a.48.48,0,0,0,.31-.84Z"/><rect class="cls-17" x="280.07" y="87.65" width="59.23" height="32.13" rx="3" ry="3"/><path class="cls-18" d="M316,129.73a1.08,1.08,0,0,0-.57-.15h-12a1.07,1.07,0,0,0-.59.16l-1.69,1.1c-.12.08-.05.22.1.22H317.8c.09,0,.13-.09.06-.13Z"/><path class="cls-24" d="M340.71,125.83a1.23,1.23,0,0,0-.74-.26H279a1.16,1.16,0,0,0-.75.28l-2.18,1.83a.21.21,0,0,0,.13.37h66.86a.12.12,0,0,0,.08-.21Z"/><g class="cls-25"><rect class="cls-26" x="277.48" y="85.66" width="62.21" height="38.63"/><rect class="cls-9" x="286.58" y="98.45" width="21.92" height="14.58" rx="3" ry="3"/><rect class="cls-27" x="277.48" y="85.66" width="62.21" height="38.63"/><circle class="cls-18" cx="326.06" cy="108.92" r="6.43"/><rect class="cls-13" x="303.81" y="93.2" width="21.92" height="14.58" rx="3" ry="3"/></g><rect class="cls-18" x="268.88" y="122.36" width="3.14" height="3.16" transform="translate(491.11 -75.58) rotate(113.26)"/><rect class="cls-16" x="263.26" y="117.23" width="3.99" height="8.94" rx="1" ry="1" transform="translate(481.82 -73.93) rotate(113.26)"/><g class="cls-28"><rect class="cls-13" x="337.07" y="-90.79" width="37.58" height="96.33" rx="5" ry="5" transform="translate(91.89 199.8) rotate(-35.73)"/></g></g></g></svg>