<svg xmlns="http://www.w3.org/2000/svg" xmlns:xlink="http://www.w3.org/1999/xlink" viewBox="0 0 467.99 192.39"><defs><style>.cls-1,.cls-14{fill:none;}.cls-2{fill:url(#linear-gradient);}.cls-3{fill:url(#무제_그라디언트_22);}.cls-4{clip-path:url(#clip-path);}.cls-5{fill:#91f8f3;}.cls-6{clip-path:url(#clip-path-2);}.cls-12,.cls-7,.cls-8{fill:#2c2c2c;}.cls-14,.cls-7{stroke:#fafafa;stroke-linecap:round;stroke-linejoin:round;stroke-width:0.5px;}.cls-9{fill:#8ff393;}.cls-10{fill:url(#linear-gradient-2);}.cls-11{fill:url(#무제_그라디언트_22-2);}.cls-12{opacity:0.8;}.cls-13{fill:#fafafa;}.cls-15{clip-path:url(#clip-path-3);}.cls-16{fill:#6b41ff;}</style><linearGradient id="linear-gradient" x1="188.14" y1="92.73" x2="270.28" y2="4.99" gradientUnits="userSpaceOnUse"><stop offset="0.03" stop-color="#ddf8f3"/><stop offset="0.46" stop-color="#ecfcf8"/><stop offset="1" stop-color="#fbfffd"/></linearGradient><linearGradient id="무제_그라디언트_22" x1="180.04" y1="100.53" x2="255.47" y2="26" gradientUnits="userSpaceOnUse"><stop offset="0" stop-color="#c6b1ed" stop-opacity="0"/><stop offset="1" stop-color="#ded0f4"/></linearGradient><clipPath id="clip-path"><rect class="cls-1" x="134.89" y="59.7" width="111.64" height="60.57" rx="3" ry="3"/></clipPath><clipPath id="clip-path-2"><rect class="cls-1" x="186.28" y="68.96" width="205.95" height="104.67"/></clipPath><linearGradient id="linear-gradient-2" x1="243.39" y1="134.32" x2="313.61" y2="81.11" gradientTransform="translate(383.67 -152.31) rotate(90)" xlink:href="#linear-gradient"/><linearGradient id="무제_그라디언트_22-2" x1="256.96" y1="124.17" x2="298.3" y2="92.33" gradientTransform="translate(383.67 -152.31) rotate(90)" xlink:href="#무제_그라디언트_22"/><clipPath id="clip-path-3"><polyline class="cls-1" points="248.68 127.39 248.68 104.19 285.53 104.19 285.53 127.39"/></clipPath></defs><title>WARP_guide graphic_0218</title><g id="graphic"><rect class="cls-2" x="134.89" y="59.7" width="111.64" height="60.57" rx="3" ry="3"/><rect class="cls-3" x="134.89" y="59.7" width="111.64" height="60.57" rx="3" ry="3"/><g class="cls-4"><circle class="cls-5" cx="188.72" cy="108.64" r="26.28" transform="translate(-21.55 165.26) rotate(-45)"/></g><rect class="cls-1" x="126.39" y="28.54" width="180.75" height="135.32"/><g class="cls-6"><line class="cls-7" x1="233.59" y1="139.25" x2="227.91" y2="148.69"/><line class="cls-7" x1="225.88" y1="135.08" x2="199.58" y2="147.11"/><path class="cls-7" d="M222.12,160a2,2,0,1,1,2.64-.93A2,2,0,0,1,222.12,160Z"/><polygon class="cls-8" points="302.57 100.18 299.47 133.22 301.84 136.58 308.17 141.66 313.25 143.7 314.9 144.16 318.72 149.63 337.25 136.12 334.21 130.84 317.4 104.86 311.73 102.23 306.26 101.11 302.57 100.18"/><path class="cls-9" d="M293.62,84.37c0-.37-1.47-.32-2.38-1.3s-.88-3.22-1.23-3.22-.33,2.23-1.24,3.22-2.38.93-2.38,1.3,1.47.31,2.38,1.29.88,3.22,1.24,3.22.32-2.23,1.23-3.22S293.62,84.73,293.62,84.37Z"/><rect class="cls-7" x="250.17" y="81.34" width="35.64" height="68.69" rx="2.9" ry="2.9" transform="translate(152.31 383.67) rotate(-90)"/><rect class="cls-10" x="252.81" y="87.8" width="30.36" height="55.77" transform="translate(152.31 383.67) rotate(-90)"/><rect class="cls-11" x="252.81" y="87.8" width="30.36" height="55.77" transform="translate(152.31 383.67) rotate(-90)"/><path class="cls-12" d="M240.1,100.5v30.36h55.77V100.5Zm8.58,26.89v-23.2h36.85v23.2"/><circle class="cls-13" cx="291.09" cy="115.83" r="2.26"/><path class="cls-14" d="M294,115.83a2.86,2.86,0,1,1-2.86-2.86A2.86,2.86,0,0,1,294,115.83Z"/><g class="cls-15"><circle class="cls-5" cx="267.99" cy="123.74" r="9.23"/></g><path class="cls-14" d="M337.74,136.16c-.6-.59-19.5-30.33-20.28-31-3-2.77-14.8-4.75-14.8-4.75"/><path class="cls-14" d="M318.09,148.62,315,144.31s-10.81-2.43-15.4-10.74"/><path class="cls-7" d="M316.57,136.16c-6.85-3.16-9.69-10.11-9.69-10.11s-14.21-.41-17.19-5.56c-2.77-4.8,6-8.15,25.25-3.32l6.91,2"/><path class="cls-7" d="M298.49,115.52s-.93,4.57-1.47,5-4.58.89-6.76-1.19,2.12-4.72,8.2-3.86"/><rect class="cls-16" x="337.07" y="132.7" width="37.58" height="96.33" rx="5" ry="5" transform="translate(-38.63 241.88) rotate(-35.73)"/><line class="cls-14" x1="317.2" y1="96.35" x2="319.41" y2="91.31"/><line class="cls-14" x1="320.97" y1="100.18" x2="334.44" y2="94.95"/><line class="cls-14" x1="321.76" y1="106.51" x2="350.92" y2="112.89"/><path class="cls-7" d="M321.56,85.36a1,1,0,1,1-1.25.63A1,1,0,0,1,321.56,85.36Z"/></g></g></svg>