<svg xmlns="http://www.w3.org/2000/svg" xmlns:xlink="http://www.w3.org/1999/xlink" viewBox="0 0 405.82 176"><defs><style>.cls-1,.cls-12{fill:none;}.cls-2{isolation:isolate;}.cls-13,.cls-18,.cls-3{fill:#2c2c2c;}.cls-4{fill:#fafafa;}.cls-5{fill:url(#linear-gradient);}.cls-6{mix-blend-mode:multiply;}.cls-7{fill:url(#linear-gradient-2);}.cls-8{fill:#6b41ff;}.cls-9{fill:url(#linear-gradient-3);}.cls-10{fill:#d489ac;}.cls-11{fill:#91f8f3;}.cls-12{stroke:#6b41ff;}.cls-12,.cls-19{stroke-miterlimit:10;}.cls-12,.cls-13{stroke-width:0.7px;}.cls-13,.cls-18,.cls-19{stroke:#fafafa;}.cls-13,.cls-18{stroke-linecap:round;stroke-linejoin:round;}.cls-14{fill:url(#linear-gradient-4);}.cls-15{fill:url(#linear-gradient-5);}.cls-16{fill:#8ff393;}.cls-17{fill:url(#linear-gradient-6);}.cls-18,.cls-19{stroke-width:0.3px;}.cls-19{opacity:0.2;fill:url(#무제_그라디언트_22);}.cls-20{clip-path:url(#clip-path);}.cls-21{fill:url(#linear-gradient-7);}.cls-22{fill:url(#linear-gradient-8);}</style><linearGradient id="linear-gradient" x1="37.87" y1="39.7" x2="83.35" y2="39.7" gradientUnits="userSpaceOnUse"><stop offset="0" stop-color="#c5f9f8"/><stop offset="0.04" stop-color="#bceee8"/><stop offset="0.06" stop-color="#beefe9"/><stop offset="0.21" stop-color="#d2f5ef"/><stop offset="0.38" stop-color="#e0faf3"/><stop offset="0.6" stop-color="#e8fcf5"/><stop offset="0.98" stop-color="#eafdf6"/></linearGradient><linearGradient id="linear-gradient-2" x1="41.68" y1="33.73" x2="84.17" y2="47.73" gradientUnits="userSpaceOnUse"><stop offset="0" stop-color="#c6b1ed" stop-opacity="0"/><stop offset="1" stop-color="#bea5ea" stop-opacity="0.8"/></linearGradient><linearGradient id="linear-gradient-3" x1="114.71" y1="30.04" x2="185.28" y2="30.04" gradientUnits="userSpaceOnUse"><stop offset="0.03" stop-color="#ddf8f3"/><stop offset="0.46" stop-color="#ecfcf8"/><stop offset="1" stop-color="#fbfffd"/></linearGradient><linearGradient id="linear-gradient-4" x1="300.7" y1="43.84" x2="370.42" y2="43.84" xlink:href="#linear-gradient"/><linearGradient id="linear-gradient-5" x1="306.72" y1="34.75" x2="371.44" y2="56.07" xlink:href="#linear-gradient-2"/><linearGradient id="linear-gradient-6" x1="277.79" y1="156.97" x2="405.42" y2="111.44" xlink:href="#linear-gradient-3"/><linearGradient id="무제_그라디언트_22" x1="294.46" y1="131.99" x2="373.26" y2="131.99" gradientUnits="userSpaceOnUse"><stop offset="0" stop-color="#c6b1ed" stop-opacity="0"/><stop offset="1" stop-color="#ded0f4"/></linearGradient><clipPath id="clip-path"><rect class="cls-1" x="299.24" y="86.06" width="69.46" height="37.69" rx="3" ry="3"/></clipPath><linearGradient id="linear-gradient-7" x1="295.47" y1="105.11" x2="391.52" y2="105.11" xlink:href="#linear-gradient"/><linearGradient id="linear-gradient-8" x1="303.51" y1="92.5" x2="393.26" y2="122.06" xlink:href="#linear-gradient-2"/></defs><title>WARP_guide graphic_0218</title><g class="cls-2"><g id="graphic"><rect class="cls-3" x="45.58" y="12.43" width="28.31" height="54.56" rx="2.9" ry="2.9" transform="translate(20.03 99.44) rotate(-90)"/><path class="cls-4" d="M84.12,54.21H35.35A3.25,3.25,0,0,1,32.11,51V28.45a3.25,3.25,0,0,1,3.24-3.25H84.12a3.25,3.25,0,0,1,3.24,3.25V51A3.25,3.25,0,0,1,84.12,54.21ZM35.35,25.9a2.55,2.55,0,0,0-2.54,2.55V51a2.55,2.55,0,0,0,2.54,2.55H84.12A2.55,2.55,0,0,0,86.66,51V28.45a2.55,2.55,0,0,0-2.54-2.55Z"/><path class="cls-5" d="M81,51.53H38.52a.62.62,0,0,1-.65-.58V28.3a.45.45,0,0,1,.48-.43H81.12a.45.45,0,0,1,.48.43V51A.62.62,0,0,1,81,51.53Z"/><g class="cls-6"><path class="cls-7" d="M81,51.53H38.52a.62.62,0,0,1-.65-.58V28.3a.45.45,0,0,1,.48-.43H81.12a.45.45,0,0,1,.48.43V51A.62.62,0,0,1,81,51.53Z"/></g><path class="cls-8" d="M59.8,41.74h.73l-1.76-4.08h0L57,41.74h.65L58,40.8h1.41Zm-1.59-1.47L58.72,39l.5,1.27Z"/><path class="cls-8" d="M64.09,41.74l-1-1.51a1.24,1.24,0,0,0,.38-.29,1.19,1.19,0,0,0,.23-.43,1.53,1.53,0,0,0,.07-.47,1.35,1.35,0,0,0-.1-.55,1.14,1.14,0,0,0-.3-.39,1.36,1.36,0,0,0-.46-.25,1.89,1.89,0,0,0-.6-.09H61.17v4h.64V40.36h.64l.89,1.38Zm-2.28-3.37h.59a.91.91,0,0,1,.35.07.63.63,0,0,1,.21.18.7.7,0,0,1,.11.23.59.59,0,0,1,0,.21.81.81,0,0,1-.16.45.65.65,0,0,1-.22.17.91.91,0,0,1-.35.06h-.57Z"/><path class="cls-8" d="M67.13,38.35a1.2,1.2,0,0,0-.5-.44,1.79,1.79,0,0,0-.77-.15H64.73v4h.64V40.36H66a1.54,1.54,0,0,0,.63-.11,1.21,1.21,0,0,0,.42-.31,1.37,1.37,0,0,0,.23-.43A1.49,1.49,0,0,0,67.3,39,1.38,1.38,0,0,0,67.13,38.35Zm-.5.92a.65.65,0,0,1-.11.22.79.79,0,0,1-.22.18.75.75,0,0,1-.35.07h-.58V38.37H66a.87.87,0,0,1,.35.07.58.58,0,0,1,.22.18.62.62,0,0,1,.1.22.59.59,0,0,1,0,.21A.64.64,0,0,1,66.63,39.27Z"/><path class="cls-8" d="M57.33,37.76h-.61l-.16.42-.82,2.11-1-2.53h-.6l.38,1.08-.75,1.49-1-2.57h-.61l1.5,4h.09l1.05-2.19.1.24.74,2h.1Zm-1.59,2.53h0Z"/><circle class="cls-8" cx="136.52" cy="31.13" r="9.95" transform="translate(17.97 105.65) rotate(-45)"/><circle class="cls-8" cx="136.52" cy="31.13" r="7.62" transform="translate(-1.58 54.29) rotate(-22.37)"/><path class="cls-9" d="M185.28,33.69l-8.42-6.8a3.64,3.64,0,0,0-2.28-.8H125.21a3.66,3.66,0,0,0-2.33.84l-8.12,6.82a.14.14,0,0,0,.09.24h70.43Z"/><path class="cls-10" d="M114.85,34.72h70.3a.33.33,0,0,1,.33.33V53A2.47,2.47,0,0,1,183,55.43H117A2.47,2.47,0,0,1,114.52,53V35.05A.33.33,0,0,1,114.85,34.72Z"/><path class="cls-3" d="M114.52,34.68v18A2.51,2.51,0,0,0,117,55.23H183a2.51,2.51,0,0,0,2.5-2.51v-18a1,1,0,0,0-.35-.76l-8.25-7a3.72,3.72,0,0,0-2.33-.82h-49.3a3.74,3.74,0,0,0-2.4.87l-8,7A1,1,0,0,0,114.52,34.68Z"/><path class="cls-4" d="M183,55.58H117a2.87,2.87,0,0,1-2.86-2.86v-18a1.37,1.37,0,0,1,.46-1l8-7a4.14,4.14,0,0,1,2.63-1h49.3a4.09,4.09,0,0,1,2.55.9l8.26,7a1.35,1.35,0,0,1,.47,1v18A2.86,2.86,0,0,1,183,55.58ZM125.25,26.44a3.37,3.37,0,0,0-2.17.79l-8,7a.64.64,0,0,0-.22.49v18A2.16,2.16,0,0,0,117,54.88H183a2.16,2.16,0,0,0,2.15-2.16v-18a.68.68,0,0,0-.22-.5l-8.25-7a3.37,3.37,0,0,0-2.11-.74Z"/><path class="cls-4" d="M183.29,34.54H116.48a.15.15,0,1,1,0-.3h66.81a.15.15,0,0,1,0,.3Z"/><path class="cls-11" d="M123.06,39.53a1.83,1.83,0,1,1-1.83-1.83A1.83,1.83,0,0,1,123.06,39.53Z"/><path class="cls-12" d="M211.17,88.88s46.65-28.24,34.32-53.56a16.62,16.62,0,0,0-10.54-9c-4.29-1.13-10.48-1.14-16.23,5.29-11.45,12.83,3.65,44.92,48.91,22.79"/><rect class="cls-11" x="203.69" y="90.91" width="2.43" height="2.44" transform="translate(217.59 316.43) rotate(-117.45)"/><rect class="cls-3" x="207.24" y="86.66" width="3.09" height="6.92" rx="1" ry="1" transform="translate(225.04 316.93) rotate(-117.45)"/><path class="cls-4" d="M206.75,93.08a1.05,1.05,0,0,1-.93-.56l-.7-1.37a1,1,0,0,1-.07-.79,1,1,0,0,1,.51-.62l4.77-2.47a1,1,0,0,1,.79-.07,1,1,0,0,1,.61.51l.71,1.37a1,1,0,0,1,.07.8,1,1,0,0,1-.51.61L207.23,93A1,1,0,0,1,206.75,93.08Zm4.06-5.39a.46.46,0,0,0-.23.06l-4.77,2.48a.48.48,0,0,0-.25.29.46.46,0,0,0,0,.38l.7,1.37a.5.5,0,0,0,.68.21L211.75,90a.5.5,0,0,0,.25-.3.46.46,0,0,0,0-.38L211.25,88h0a.46.46,0,0,0-.29-.24A.4.4,0,0,0,210.81,87.69Z"/><rect class="cls-11" x="272.36" y="49.77" width="2.43" height="2.44" transform="translate(192.73 -215.29) rotate(62.55)"/><rect class="cls-3" x="268.15" y="49.55" width="3.09" height="6.92" rx="1" ry="1" transform="translate(192.43 -210.76) rotate(62.55)"/><path class="cls-4" d="M267.67,56a1.13,1.13,0,0,1-.32,0,1,1,0,0,1-.61-.51L266,54a1,1,0,0,1-.07-.79,1.05,1.05,0,0,1,.51-.62l4.77-2.47a1,1,0,0,1,1.41.44l.71,1.37a1.06,1.06,0,0,1-.45,1.41l-4.76,2.47A1.07,1.07,0,0,1,267.67,56Zm4.05-5.39a.46.46,0,0,0-.23.06l-4.77,2.47a.57.57,0,0,0-.25.3.5.5,0,0,0,0,.38l.71,1.37h0a.51.51,0,0,0,.29.25.53.53,0,0,0,.39,0l4.76-2.47a.51.51,0,0,0,.22-.68l-.71-1.37A.51.51,0,0,0,271.72,50.58Z"/><path class="cls-4" d="M122.38,140.69a.32.32,0,0,1-.14,0,.38.38,0,0,1-.22-.5l27.14-68.57a.39.39,0,0,1,.36-.25h0a.39.39,0,0,1,.36.25L177,140.16a.39.39,0,0,1-.72.29L149.52,72.78l-26.78,67.67A.39.39,0,0,1,122.38,140.69Z"/><path class="cls-4" d="M149.52,126.4a.39.39,0,0,1-.39-.39V71.73a.39.39,0,1,1,.78,0V126A.39.39,0,0,1,149.52,126.4Z"/><path class="cls-8" d="M170.35,66.3a3,3,0,0,0-1.83-.64H130.19a3.3,3.3,0,0,0-2.13.77l-4.47,3.75a.93.93,0,0,0,.6,1.65h50.89a.71.71,0,0,0,.45-1.25Z"/><rect class="cls-13" x="313.48" y="7.32" width="41.48" height="73.04" rx="2.9" ry="2.9" transform="translate(290.38 378.06) rotate(-90)"/><path class="cls-14" d="M366.75,61.18H301.69a.93.93,0,0,1-1-.86V27.13a.69.69,0,0,1,.73-.62H367a.69.69,0,0,1,.73.62V60.32A.93.93,0,0,1,366.75,61.18Z"/><g class="cls-6"><path class="cls-15" d="M366.75,61.18H301.69a.93.93,0,0,1-1-.86V27.13a.69.69,0,0,1,.73-.62H367a.69.69,0,0,1,.73.62V60.32A.93.93,0,0,1,366.75,61.18Z"/></g><rect class="cls-16" x="309.89" y="38.04" width="21.53" height="14.32" rx="3" ry="3"/><circle class="cls-11" cx="348.67" cy="48.32" r="6.32" transform="translate(8.05 137.11) rotate(-22.5)"/><rect class="cls-8" x="326.82" y="32.87" width="21.53" height="14.32" rx="3" ry="3"/><path class="cls-17" d="M372.77,130.08a5.41,5.41,0,0,0-3.38-1.2H298.14a5.39,5.39,0,0,0-3.46,1.26l-10.07,8.44a1,1,0,0,0,.63,1.73l98.38,0a.56.56,0,0,0,.35-1Z"/><rect class="cls-3" x="295.74" y="80.74" width="76.47" height="48.31" rx="5" ry="5"/><path class="cls-4" d="M368.28,129.33H299.67a4.21,4.21,0,0,1-4.2-4.21V84.67a4.2,4.2,0,0,1,4.2-4.2h68.61a4.21,4.21,0,0,1,4.21,4.2v40.45A4.22,4.22,0,0,1,368.28,129.33ZM299.67,81A3.66,3.66,0,0,0,296,84.67v40.45a3.66,3.66,0,0,0,3.66,3.66h68.61a3.66,3.66,0,0,0,3.66-3.66V84.67A3.66,3.66,0,0,0,368.28,81Z"/><path class="cls-3" d="M372.77,130.08a5.41,5.41,0,0,0-3.38-1.2H298.14a5.39,5.39,0,0,0-3.46,1.26l-10.07,8.44a1,1,0,0,0,.63,1.73l98.38,0a.56.56,0,0,0,.35-1Z"/><path class="cls-4" d="M383.62,140.61h0l-98.38,0a1.25,1.25,0,0,1-.8-2.21l10.06-8.44a5.69,5.69,0,0,1,3.64-1.32h71.25a5.65,5.65,0,0,1,3.55,1.25h0l11.2,9.27a.83.83,0,0,1,.25.92A.82.82,0,0,1,383.62,140.61Zm-85.48-11.45a5.13,5.13,0,0,0-3.29,1.19l-10.06,8.44a.7.7,0,0,0,.45,1.24l98.38,0h0a.27.27,0,0,0,.26-.18.28.28,0,0,0-.08-.32l-11.2-9.27a5.15,5.15,0,0,0-3.21-1.13Z"/><rect class="cls-18" x="299.24" y="86.06" width="69.46" height="37.69" rx="3" ry="3"/><path class="cls-11" d="M341.35,135.41a1.27,1.27,0,0,0-.67-.18H326.59a1.35,1.35,0,0,0-.69.19l-2,1.29c-.13.09-.05.27.13.27h19.45c.1,0,.15-.1.07-.15Z"/><path class="cls-19" d="M370.36,130.84a1.43,1.43,0,0,0-.86-.3H298a1.36,1.36,0,0,0-.88.32L294.55,133a.24.24,0,0,0,.16.43h78.41a.14.14,0,0,0,.09-.25Z"/><g class="cls-20"><path class="cls-21" d="M386.46,130.1H296.84a1.3,1.3,0,0,1-1.37-1.23V81a1,1,0,0,1,1-.9h90.35a1,1,0,0,1,1,.9v47.85A1.3,1.3,0,0,1,386.46,130.1Z"/><g class="cls-6"><path class="cls-22" d="M386.46,130.1H296.84a1.3,1.3,0,0,1-1.37-1.23V81a1,1,0,0,1,1-.9h90.35a1,1,0,0,1,1,.9v47.85A1.3,1.3,0,0,1,386.46,130.1Z"/></g><rect class="cls-16" x="306.88" y="98.73" width="25.71" height="17.09" rx="3" ry="3"/><circle class="cls-11" cx="353.18" cy="111.01" r="7.54" transform="translate(-15.53 144.38) rotate(-22.62)"/><rect class="cls-8" x="327.08" y="92.56" width="25.71" height="17.09" rx="3" ry="3"/></g></g></g></svg>