<svg xmlns="http://www.w3.org/2000/svg" viewBox="0 0 294.81 205.87"><defs><style>.cls-1{isolation:isolate;}.cls-2{fill:#91f8f3;}.cls-13,.cls-3{fill:#2c2c2c;}.cls-4{fill:#fafafa;}.cls-5{fill:#898989;}.cls-6{mix-blend-mode:multiply;}.cls-7{opacity:0.3;}.cls-8{fill:#fff;}.cls-11,.cls-9{fill:none;}.cls-11,.cls-13,.cls-9{stroke:#fafafa;}.cls-13,.cls-9{stroke-linecap:round;stroke-linejoin:round;stroke-width:0.5px;}.cls-10{fill:#8ff393;}.cls-11{stroke-miterlimit:10;stroke-width:0.48px;}.cls-12{fill:#e37577;}.cls-14{fill:#6b41ff;}</style></defs><title>WARP_guide graphic_0218</title><g class="cls-1"><g id="graphic"><circle class="cls-2" cx="99.75" cy="115.38" r="64"/><rect class="cls-3" x="95.98" y="34.15" width="81.66" height="157.39" rx="5" ry="5" transform="translate(23.97 249.65) rotate(-90)"/><path class="cls-4" d="M208,154.2H65.59a8,8,0,0,1-8-8V79.48a8,8,0,0,1,8-8H208a8,8,0,0,1,8,8V146.2A8,8,0,0,1,208,154.2ZM65.59,72.53a7,7,0,0,0-7,7V146.2a7,7,0,0,0,7,7H208a7,7,0,0,0,6.95-7V79.48a7,7,0,0,0-6.95-7Z"/><path class="cls-5" d="M198,147H75.6a1.78,1.78,0,0,1-1.87-1.68V80a1.31,1.31,0,0,1,1.38-1.24h123.4A1.31,1.31,0,0,1,199.89,80v65.34A1.78,1.78,0,0,1,198,147Z"/><g class="cls-6"><path class="cls-5" d="M198,147H75.6a1.78,1.78,0,0,1-1.87-1.68V80a1.31,1.31,0,0,1,1.38-1.24h123.4A1.31,1.31,0,0,1,199.89,80v65.34A1.78,1.78,0,0,1,198,147Z"/></g><g class="cls-7"><path class="cls-4" d="M196.1,85.45a3,3,0,1,1-3-3A3,3,0,0,1,196.1,85.45Z"/></g><g class="cls-7"><path class="cls-4" d="M187.3,85.45a3,3,0,1,1-3-3A3,3,0,0,1,187.3,85.45Z"/></g><rect class="cls-3" x="146.6" y="132.91" width="42.07" height="10.18" rx="2.96" ry="2.96"/><path class="cls-8" d="M137,115.39h2.11L134,103.55h-.11l-5.13,11.84h1.9l1.12-2.73h4.09Zm-4.61-4.29,1.47-3.67,1.45,3.67Z"/><path class="cls-8" d="M149.45,115.39l-2.93-4.4a4,4,0,0,0,1.11-.84,3.33,3.33,0,0,0,.67-1.24,4.59,4.59,0,0,0,.21-1.36,3.89,3.89,0,0,0-.3-1.59,3,3,0,0,0-.87-1.15,3.79,3.79,0,0,0-1.35-.72,5.58,5.58,0,0,0-1.74-.26H141v11.56h1.86v-4h1.84l2.61,4Zm-6.61-9.78h1.72a2.28,2.28,0,0,1,1,.2,1.65,1.65,0,0,1,.62.51,2,2,0,0,1,.33.66,2.51,2.51,0,0,1,.09.63,2.13,2.13,0,0,1-.1.64,1.93,1.93,0,0,1-.34.65,1.83,1.83,0,0,1-.65.49,2.41,2.41,0,0,1-1,.19h-1.65Z"/><path class="cls-8" d="M158.28,105.55a3.22,3.22,0,0,0-1.43-1.27,5.21,5.21,0,0,0-2.26-.45h-3.27v11.56h1.86v-4h1.68a4.35,4.35,0,0,0,1.82-.34,3.41,3.41,0,0,0,1.21-.89,3.5,3.5,0,0,0,.68-1.24,4.7,4.7,0,0,0,.21-1.37A3.76,3.76,0,0,0,158.28,105.55Zm-1.44,2.65a2.08,2.08,0,0,1-.34.66,1.71,1.71,0,0,1-.63.51,2.2,2.2,0,0,1-1,.21h-1.67v-4h1.71a2.36,2.36,0,0,1,1,.2,1.58,1.58,0,0,1,.62.51,2.19,2.19,0,0,1,.4,1.26A2.15,2.15,0,0,1,156.84,108.2Z"/><path class="cls-8" d="M129.82,103.83h-1.75l-.47,1.2-2.4,6.13-2.87-7.34h-1.74l1.12,3.13-2.18,4.34-2.9-7.47h-1.72v0l-.08,0,4.35,11.55h.29l3-6.33.29.67,2.14,5.67h.29Zm-4.61,7.36Z"/><circle class="cls-9" cx="41.33" cy="158.03" r="3.04"/><circle class="cls-9" cx="196.1" cy="169.15" r="3.04"/><path class="cls-10" d="M232,85.66c0-.56-2.25-.48-3.65-2s-1.35-4.94-1.9-4.94-.5,3.43-1.89,4.94-3.66,1.44-3.66,2,2.26.47,3.66,2,1.35,4.94,1.89,4.94.51-3.43,1.9-4.94S232,86.21,232,85.66Z"/><line class="cls-11" x1="207.27" y1="50.09" x2="220.17" y2="62.99"/><line class="cls-11" x1="220.17" y1="50.09" x2="207.27" y2="62.99"/><line class="cls-11" x1="213.72" y1="47.41" x2="213.72" y2="65.66"/><line class="cls-11" x1="222.85" y1="56.54" x2="204.6" y2="56.54"/><line class="cls-11" x1="33.33" y1="82.04" x2="46.24" y2="94.94"/><line class="cls-11" x1="46.24" y1="82.04" x2="33.33" y2="94.94"/><line class="cls-11" x1="39.78" y1="79.37" x2="39.78" y2="97.62"/><line class="cls-11" x1="48.91" y1="88.49" x2="30.66" y2="88.49"/><path class="cls-12" d="M148.77,150.81c0-.58-2.34-.49-3.79-2.07s-1.41-5.14-2-5.14-.52,3.57-2,5.14-3.8,1.49-3.8,2.07,2.35.5,3.8,2.08,1.4,5.14,2,5.14.52-3.57,2-5.14S148.77,151.39,148.77,150.81Z"/><line class="cls-13" x1="78.69" y1="121.99" x2="86.97" y2="128.49"/><line class="cls-13" x1="90.05" y1="127.51" x2="90.3" y2="122.07"/><rect class="cls-14" x="86.97" y="130.76" width="55.21" height="13.37" rx="4.48" ry="4.48"/><path class="cls-8" d="M101.52,137.06c.77,0,1.49-.09,2.17-.18l0,.55a18.48,18.48,0,0,1-2.18.22c-.76,0-1.57,0-2.43,0l-.09-.61C99.93,137.09,100.75,137.08,101.52,137.06Zm-.18-1.41a2,2,0,0,1-.74.63,3.47,3.47,0,0,1-1.1.36l-.27-.57a3.54,3.54,0,0,0,.92-.26,1.66,1.66,0,0,0,.62-.43.81.81,0,0,0,.23-.54v-.1h.6v.1A1.37,1.37,0,0,1,101.34,135.65Zm2-.76h-4v-.59h4Zm1.55,5H100.8v.88H100v-1.43h4.12v-.54H100v-.59h4.92Zm.27,1.2H100v-.6h5.18Zm-3.41-6.49H101v-.91h.78Zm0,2.78H101v-1.05h.78Zm.22-2a1.72,1.72,0,0,0,.62.41,3.86,3.86,0,0,0,.92.24l-.27.57a3.45,3.45,0,0,1-1.11-.34,2,2,0,0,1-.73-.6,1.33,1.33,0,0,1-.25-.79v-.1h.6v.1A.73.73,0,0,0,102,135.35Zm2.92,2.54h-.79V133.7h.79Zm1.06-1.81h-1.37v-.65H106Z"/><path class="cls-8" d="M109.47,134.36a1.76,1.76,0,0,1,.69,2.48,1.77,1.77,0,0,1-.69.64,2.36,2.36,0,0,1-2,0,1.73,1.73,0,0,1-.7-.64,1.82,1.82,0,0,1,0-1.84,1.67,1.67,0,0,1,.7-.64,2.36,2.36,0,0,1,2,0Zm-1.61.59a1.08,1.08,0,0,0-.43.39,1.2,1.2,0,0,0,0,1.16,1.08,1.08,0,0,0,.43.39,1.26,1.26,0,0,0,.62.14,1.21,1.21,0,0,0,.6-.14,1.08,1.08,0,0,0,.43-.39,1.2,1.2,0,0,0,0-1.16,1,1,0,0,0-.42-.39,1.24,1.24,0,0,0-.61-.13A1.26,1.26,0,0,0,107.86,135Zm3.62,3.48a1.92,1.92,0,0,1,.87.5,1.15,1.15,0,0,1,0,1.55,1.83,1.83,0,0,1-.87.49,5.41,5.41,0,0,1-2.69,0,1.83,1.83,0,0,1-.87-.49,1.15,1.15,0,0,1,0-1.55,1.92,1.92,0,0,1,.87-.5,5.41,5.41,0,0,1,2.69,0Zm-2.29.54a1.4,1.4,0,0,0-.6.29.58.58,0,0,0,0,.88,1.52,1.52,0,0,0,.6.28,3.76,3.76,0,0,0,.94.1,3.66,3.66,0,0,0,.94-.1,1.51,1.51,0,0,0,.61-.28.59.59,0,0,0,.2-.44.62.62,0,0,0-.2-.45,1.51,1.51,0,0,0-.61-.28,4.22,4.22,0,0,0-.94-.09A4.35,4.35,0,0,0,109.19,139Zm2.89-3.58h-2.26v-.64h2.26Zm0,1.7h-2.26v-.64h2.26Zm.55,1h-.79v-4.4h.79Z"/><path class="cls-8" d="M120.24,135.51h-4.42v-.64h4.42Zm-1.23.77a1.64,1.64,0,0,1,.66.62,1.79,1.79,0,0,1,0,1.79,1.64,1.64,0,0,1-.66.62,2,2,0,0,1-1,.22,2,2,0,0,1-1-.22,1.64,1.64,0,0,1-.66-.62,1.67,1.67,0,0,1-.24-.89,1.71,1.71,0,0,1,.24-.9,1.64,1.64,0,0,1,.66-.62,2.15,2.15,0,0,1,1-.22A2.11,2.11,0,0,1,119,136.28Zm-1.52.57a1,1,0,0,0-.39.39,1,1,0,0,0-.14.56,1.06,1.06,0,0,0,.14.56,1,1,0,0,0,.39.38,1.2,1.2,0,0,0,.57.13,1.13,1.13,0,0,0,.56-.13,1,1,0,0,0,.39-.38,1.17,1.17,0,0,0,.15-.56,1.14,1.14,0,0,0-.15-.56.92.92,0,0,0-.39-.39,1.16,1.16,0,0,0-.56-.13A1.2,1.2,0,0,0,117.49,136.85Zm1-1.71h-.79V133.8h.79Zm3.22,6h-.78V133.7h.78Zm1.19-3.77h-1.37v-.66h1.37Z"/><path class="cls-8" d="M126.85,136.61a5,5,0,0,1-1.12,1.78,6.7,6.7,0,0,1-2,1.4l-.42-.63a6.54,6.54,0,0,0,1.76-1.19,4.16,4.16,0,0,0,1-1.5,5,5,0,0,0,.33-1.84v-.13h.79A6.27,6.27,0,0,1,126.85,136.61Zm-.08-1.48h-3.11v-.63h3.11Zm2.65,6h-.79V133.7h.79Z"/><circle class="cls-10" cx="81.84" cy="85.37" r="1.69"/></g></g></svg>