<svg xmlns="http://www.w3.org/2000/svg" xmlns:xlink="http://www.w3.org/1999/xlink" viewBox="0 0 294.81 205.87"><defs><style>.cls-1,.cls-10,.cls-17,.cls-4,.cls-5{fill:none;}.cls-2{fill:#6b41ff;}.cls-3{fill:url(#무제_그라디언트_22);}.cls-10,.cls-11,.cls-14,.cls-15,.cls-17,.cls-4,.cls-5{stroke-linecap:round;stroke-linejoin:round;}.cls-14,.cls-4,.cls-5{stroke-width:0.7px;}.cls-4,.cls-5{opacity:0.3;}.cls-4{stroke:url(#무제_그라디언트_15);}.cls-5{stroke:url(#무제_그라디언트_15-2);}.cls-6{fill:url(#linear-gradient);}.cls-7{fill:url(#무제_그라디언트_22-2);}.cls-8{clip-path:url(#clip-path);}.cls-9{fill:#91f8f3;}.cls-10,.cls-11,.cls-14,.cls-15,.cls-17{stroke:#fafafa;}.cls-11,.cls-14,.cls-15,.cls-16,.cls-21{fill:#2c2c2c;}.cls-11,.cls-17{stroke-width:0.5px;}.cls-12{fill:url(#linear-gradient-2);}.cls-13{fill:#d489ac;}.cls-15{stroke-width:0.3px;}.cls-18{fill:#8ff393;}.cls-19{fill:url(#linear-gradient-3);}.cls-20{fill:url(#무제_그라디언트_22-3);}.cls-21{opacity:0.8;}.cls-22{fill:#fafafa;}.cls-23{clip-path:url(#clip-path-2);}</style><linearGradient id="무제_그라디언트_22" x1="106.78" y1="104.67" x2="106.78" y2="5.5" gradientUnits="userSpaceOnUse"><stop offset="0" stop-color="#c6b1ed" stop-opacity="0"/><stop offset="1" stop-color="#ded0f4"/></linearGradient><linearGradient id="무제_그라디언트_15" x1="106.14" y1="55.82" x2="162.35" y2="55.82" gradientUnits="userSpaceOnUse"><stop offset="0" stop-color="#fff" stop-opacity="0"/><stop offset="0.01" stop-color="#fff" stop-opacity="0.04"/><stop offset="0.05" stop-color="#fff" stop-opacity="0.22"/><stop offset="0.09" stop-color="#fff" stop-opacity="0.39"/><stop offset="0.14" stop-color="#fff" stop-opacity="0.53"/><stop offset="0.2" stop-color="#fff" stop-opacity="0.66"/><stop offset="0.25" stop-color="#fff" stop-opacity="0.77"/><stop offset="0.32" stop-color="#fff" stop-opacity="0.85"/><stop offset="0.4" stop-color="#fff" stop-opacity="0.92"/><stop offset="0.49" stop-color="#fff" stop-opacity="0.97"/><stop offset="0.63" stop-color="#fff" stop-opacity="0.99"/><stop offset="1" stop-color="#fff"/></linearGradient><linearGradient id="무제_그라디언트_15-2" x1="51.26" y1="56.11" x2="101.29" y2="56.11" xlink:href="#무제_그라디언트_15"/><linearGradient id="linear-gradient" x1="104.51" y1="37.72" x2="187.01" y2="-50.4" gradientUnits="userSpaceOnUse"><stop offset="0.03" stop-color="#ddf8f3"/><stop offset="0.46" stop-color="#ecfcf8"/><stop offset="1" stop-color="#fbfffd"/></linearGradient><linearGradient id="무제_그라디언트_22-2" x1="96.38" y1="45.56" x2="172.13" y2="-29.29" xlink:href="#무제_그라디언트_22"/><clipPath id="clip-path"><rect class="cls-1" x="51.04" y="4.55" width="112.11" height="60.83" rx="3" ry="3"/></clipPath><linearGradient id="linear-gradient-2" x1="86.25" y1="111.8" x2="142.25" y2="111.8" xlink:href="#linear-gradient"/><linearGradient id="linear-gradient-3" x1="94.54" y1="112.05" x2="148.37" y2="71.26" gradientTransform="translate(211.17 -15.64) rotate(90)" xlink:href="#linear-gradient"/><linearGradient id="무제_그라디언트_22-3" x1="104.95" y1="104.27" x2="136.64" y2="79.86" gradientTransform="translate(211.17 -15.64) rotate(90)" xlink:href="#무제_그라디언트_22"/><clipPath id="clip-path-2"><polyline class="cls-1" points="98.6 106.74 98.6 88.95 126.85 88.95 126.85 106.74"/></clipPath></defs><title>WARP_guide graphic_0218</title><g id="graphic"><circle class="cls-2" cx="105.17" cy="54.08" r="26.39" transform="translate(-7.44 90.21) rotate(-45)"/><polygon class="cls-3" points="52.08 64.58 99.29 106.66 107.48 106.66 161.49 65.08 52.08 64.58"/><polyline class="cls-4" points="161.87 4.33 106.49 107.31 162 64.79"/><polyline class="cls-5" points="52.38 4.52 100.94 107.7 51.61 64.58"/><rect class="cls-6" x="51.04" y="4.55" width="112.11" height="60.83" rx="3" ry="3"/><rect class="cls-7" x="51.04" y="4.55" width="112.11" height="60.83" rx="3" ry="3"/><g class="cls-8"><circle class="cls-9" cx="105.09" cy="53.7" r="26.39" transform="translate(-7.19 90.04) rotate(-45)"/></g><polyline class="cls-10" points="140.67 202.87 113.78 134.91 86.88 202.87"/><line class="cls-10" x1="113.78" y1="134.91" x2="113.78" y2="188.71"/><path class="cls-2" d="M134.42,129.54a2.86,2.86,0,0,0-1.81-.64h-38a3.26,3.26,0,0,0-2.11.77l-4.43,3.71a.92.92,0,0,0,.59,1.63l50.43,0a.7.7,0,0,0,.45-1.24Z"/><line class="cls-11" x1="63.33" y1="120.24" x2="55.14" y2="122.31"/><line class="cls-11" x1="64.42" y1="112.06" x2="45.4" y2="100.66"/><path class="cls-11" d="M45.9,125.31a1.52,1.52,0,1,1,1.94.92A1.52,1.52,0,0,1,45.9,125.31Z"/><circle class="cls-2" cx="103.56" cy="112.66" r="7.9" transform="translate(-49.33 106.23) rotate(-45)"/><circle class="cls-2" cx="103.56" cy="112.66" r="6.05" transform="translate(-49.33 106.23) rotate(-45)"/><path class="cls-12" d="M142.25,114.69l-6.69-5.39a2.89,2.89,0,0,0-1.8-.64H94.58a2.87,2.87,0,0,0-1.84.67l-6.45,5.41a.11.11,0,0,0,.07.19h55.89Z"/><path class="cls-13" d="M86.44,115.51h55.64a.33.33,0,0,1,.33.33v13.63a2.47,2.47,0,0,1-2.47,2.47H88.57a2.47,2.47,0,0,1-2.47-2.47V115.85A.33.33,0,0,1,86.44,115.51Z"/><path class="cls-14" d="M86.1,115.48v14.31a2,2,0,0,0,2,2h52.33a2,2,0,0,0,2-2v-14.3a.82.82,0,0,0-.28-.61l-6.55-5.56a2.91,2.91,0,0,0-1.85-.66H94.61a3,3,0,0,0-1.9.69l-6.34,5.53A.8.8,0,0,0,86.1,115.48Z"/><line class="cls-15" x1="87.66" y1="115.25" x2="140.67" y2="115.25"/><circle class="cls-9" cx="91.43" cy="119.33" r="1.45"/><polygon class="cls-16" points="139.91 85.88 137.53 111.2 139.35 113.78 144.21 117.67 148.1 119.24 149.36 119.6 152.29 123.79 166.5 113.43 164.17 109.39 151.28 89.47 146.94 87.45 142.74 86.59 139.91 85.88"/><line class="cls-17" x1="175.54" y1="93.06" x2="177.78" y2="87.95"/><line class="cls-17" x1="179.37" y1="96.94" x2="193.01" y2="91.64"/><line class="cls-17" x1="180.17" y1="103.34" x2="209.7" y2="109.81"/><path class="cls-11" d="M180,81.92a1,1,0,0,1,.64,1.27,1,1,0,0,1-1.9-.63A1,1,0,0,1,180,81.92Z"/><path class="cls-18" d="M61.79,134.56c0-.28-1.12-.24-1.82-1s-.67-2.47-.94-2.47-.26,1.71-1,2.47-1.82.72-1.82,1,1.12.23,1.82,1,.67,2.47,1,2.47.25-1.71.94-2.47S61.79,134.83,61.79,134.56Z"/><rect class="cls-11" x="99.74" y="71.43" width="27.32" height="52.66" rx="2.9" ry="2.9" transform="translate(15.64 211.17) rotate(-90)"/><rect class="cls-19" x="101.76" y="76.39" width="23.28" height="42.75" transform="translate(15.64 211.17) rotate(-90)"/><rect class="cls-20" x="101.76" y="76.39" width="23.28" height="42.75" transform="translate(15.64 211.17) rotate(-90)"/><path class="cls-21" d="M92,86.12V109.4h42.75V86.12Zm6.57,20.62V89h28.25v17.79"/><circle class="cls-22" cx="131.11" cy="97.88" r="1.73"/><path class="cls-17" d="M133.3,97.88a2.19,2.19,0,1,1-2.19-2.19A2.19,2.19,0,0,1,133.3,97.88Z"/><g class="cls-23"><circle class="cls-9" cx="113.4" cy="103.94" r="7.08"/></g><path class="cls-17" d="M166.87,113.46c-.45-.45-14.94-23.25-15.54-23.8C149.06,87.53,140,86,140,86"/><path class="cls-17" d="M151.81,123l-2.35-3.31s-8.28-1.87-11.8-8.23"/><path class="cls-11" d="M150.65,113.46a16.07,16.07,0,0,1-7.43-7.75s-10.9-.31-13.18-4.26c-2.13-3.68,4.58-6.25,19.36-2.55l5.29,1.52"/><path class="cls-11" d="M136.78,97.64s-.71,3.5-1.12,3.85a5.55,5.55,0,0,1-5.18-.91c-1.67-1.6,1.62-3.62,6.29-3"/><rect class="cls-2" x="166.36" y="110.81" width="28.81" height="73.85" rx="5" ry="5" transform="translate(-52.25 133.38) rotate(-35.73)"/></g></svg>